<?xml version="1.0" encoding="utf-8"?>
<!-- Generator: Adobe Illustrator 19.2.1, SVG Export Plug-In . SVG Version: 6.00 Build 0)  -->
<svg version="1.1" id="Layer_1" xmlns="http://www.w3.org/2000/svg" xmlns:xlink="http://www.w3.org/1999/xlink" x="0px" y="0px"
	 viewBox="0 0 233 77.6" style="enable-background:new 0 0 233 77.6;" xml:space="preserve">
<style type="text/css">
	.st0{fill:#474748;}
</style>
<g>
	<path class="st0" d="M232.7,2.8c-0.8,0-1.5,0-2.3,0.1c-0.4-0.3-1-0.5-1.7-0.5c0,0,0,0,0,0c0-0.1-0.3-0.1-0.3,0c0,0,0,0,0,0
		c-0.2,0-0.4,0-0.7,0c-1.6,0.2-3.6,0.2-4.8,0.6c-5.8,0.1-11.6,0.2-17.3,0.3c-2.2-0.1-4.4-0.1-6.6-0.2c-13.4-0.5-26.9-0.9-40.3-0.4
		c-6.9,0-13.7,0-20.6,0c-21.2,0-42.8-2-63.6,0.2c-0.1,0-0.1,0-0.2,0.1c-1.9-0.1-3.8-0.2-5.7-0.4c-0.2,0-0.3,0.1-0.1,0.1
		c1.9,0.2,3.8,0.3,5.7,0.4c0,0.1,0.2,0.2,0.5,0.2c-3.9,0-7.7,0-11.6-0.1c0,0,0,0,0,0C59.4,3,55.5,2.9,51.6,2.9c0.1-0.1,2,0,2,0
		c1,0,1.9,0,2.9,0.1c2,0,4.1,0,6.1-0.1c0.5,0,0.5-0.3,0-0.4c-4-0.2-8,0-11.9,0.1c-0.2,0-0.4,0.1-0.3,0.2c0.1,0.1,0.1,0.1,0.2,0.1
		c-0.9,0-1.8,0-2.7,0c-0.1,0-0.3-0.1-0.4-0.1c-0.2-0.1-0.5,0-0.6,0.1c-0.7,0-1.3,0-2,0c-0.1-0.2-0.3-0.5-0.4-0.7
		c-0.2-0.2-1-0.3-1.2,0c-0.1,0.3-0.4,0.5-0.7,0.7h-0.4c-0.2-0.5-0.5-0.9-1.5-1.3c-0.3-0.1-0.8,0-0.6,0.2c0.5,0.3,0.7,0.7,0.8,1.1
		c-0.2,0-0.4,0-0.7,0c-0.4-0.9-1.4-1.8-3.3-1.5c-0.2,0-0.3,0.1-0.2,0.2c0.3,0.2,0.7,0.4,0.9,0.6c-0.5,0-1,0-1.5,0
		c-0.3-0.7-0.6-1.3-1.1-1.9C35-0.1,34.6,0,34.6,0.1C35,0.7,35.1,1.4,35.2,2C30.1,1.9,25,2,19.9,2.2C17.6,2.1,15.3,2,13,1.9
		c-0.2,0-0.2,0.1,0,0.1c1.5,0.1,3.1,0.1,4.6,0.2c-2.9,0.1-5.7,0.2-8.6,0.2c0.1,0,0.1-0.1,0.1-0.1C9.4,2.2,9,2.1,8.7,2.2
		C8.1,2.4,7.7,2.6,7.4,2.8c-0.2,0-0.3,0-0.5,0c-0.2,0-0.2,0.1,0,0.1c0.1,0,0.2,0,0.3,0C6.9,3.1,6.7,3.3,6.5,3.5c0,0-0.1-0.1-0.1-0.1
		C6.3,3.3,5.8,3.4,5.9,3.5C6,3.6,6.1,3.7,6.2,3.8c-0.3,0.6-0.3,1.3-0.2,2c0.1,0.3,0.8,0.4,1.3,0.3c0.5,0.9,1.2,1.8,2,2.6
		c0.8,2.1,1.9,4.1,3.1,6.1c3.2,5.7,6,11.5,8.2,17.3c0,0.1,0.3,0,0.2,0c-1.9-5-4.2-9.9-6.8-14.8c1.4,2.1,3,4.2,4.5,6.3
		c3.1,8.5,4.9,17,7.1,25.5c0,0.5,0,0.9,0,1.4c0,0,0.2,0,0.2,0c0-0.3,0-0.5,0-0.8c0.3,1.2,0.6,2.4,0.9,3.5c0,0.1,0.5,0.1,0.5,0
		c-0.5-2.3-1-4.5-1.5-6.8c0-2.8,0-5.5,0-8.3c0,0-0.1,0-0.1,0c0,2.6,0,5.1,0,7.7c-1.5-6.7-3.3-13.5-5.7-20.2c0.7,1,1.4,2,2,3
		c1.1,2.9,2.1,5.8,3.1,8.8c0,0.1,0.3,0,0.2,0c-0.6-2.3-1.4-4.6-2.2-6.8c0.1,0.2,0.2,0.3,0.3,0.5c0,0.1,0.1,0,0.2,0.1
		c0.3,0.8,0.6,1.6,0.9,2.4c0,0.1,0.4,0.2,0.7,0.1c0.4,1,0.8,1.9,1.1,2.9c0.2,1,0.4,1.9,0.6,2.9c0,0,0,0,0,0c0,0.1,0.1,0.3,0.1,0.4
		c0.7,3.6,0.9,7.3,1.1,10.9c0,0.1-0.1,0.1-0.1,0.2c0,0.1,0.1,0.1,0.2,0.1c0.1,1.2,0.1,2.3,0.1,3.5c0,0,0,0,0,0c0,0.1,0,0.3,0,0.4
		c0,0.2-0.1,0.3-0.1,0.5c-0.8,1.9-1.6,3.8-2.1,5.8c0,0.1,0.3,0.1,0.3,0c0.9-1.1,1.3-2.1,1.6-3.2c0,0.4,0.1,0.8,0.2,1.1
		c-0.5,1-0.4,0.9-0.5,2.1c-0.4,0-0.8,0-1.2,0.1c-0.2,0-0.2,0.2,0,0.1c0.4,0,0.8,0,1.3-0.1c0.1,0.2,0.6,0.4,1.1,0.4
		c0.2,0.1,0.4,0.2,0.8,0.3c0,0.1,0,0.1,0.1,0.2c0.1,0.1,0.5,0.1,0.5,0c0-0.1,0-0.1,0-0.2c0.1,0,0.2,0,0.3,0c0.1,0,0.1,0,0.2,0
		c0,0,0,0,0,0c0.5,0,1.1-0.1,1.6-0.1c0.2,0,0.5,0,0.7,0c1.7,0,3.5,0,5.2-0.1c0.1,0,0.3,0,0.4,0c4.3,0.1,9.3-0.4,13.5-0.8
		c0,0,0,0,0,0c0,0,0,0,0.1,0c0.4,0,0.8-0.1,1.1-0.1c9-0.3,18-0.5,27-0.7c-7.4,0.2-14.8,0.6-22.1,1.1c-4,0.3-8.1,0.6-12.1,0.9
		c-0.7,0-1.4,0.1-2.1,0.2c-6.1,0.3-12.1,0.4-17.1-0.2c-0.1,0-0.1,0.1,0,0.1c4.2,0.6,8.3,0.7,12.5,0.6c-2.5,0.1-5,0.2-7.6,0.3
		c-0.6-0.1-1.1-0.2-1.7-0.3c0,0,0,0,0,0c-2,0.4-1.2,0.1-2.7,0.8c-0.1,0-0.1,0.1,0.1,0.1c3.6,0.2,6.7,0.1,9.9-0.2
		c6.4-0.2,12.8-0.8,19-1.5c2.5-0.2,5-0.3,7.5-0.4c11.1-0.5,22.1-1,33.2-1.4c0.4,0,0.4-0.2,0.2-0.3c2.5-0.1,5.1-0.1,7.6-0.2
		c15.9-0.3,31.7-0.7,47.4-1.2c0,0,0.1,0,0.1,0c0.4,0.1,0.8,0.2,1.2,0.3c-0.8,0.1-1.6,0.3-2.3,0.6c-0.1,0,0,0.1,0.1,0
		c0.7-0.3,1.6-0.4,2.5-0.5c1.4,0.4,2.7,0.7,4,1.1c1.2,1.2,4.7,2.1,8.1,2.6c0,0,0,0,0,0c2.6,1,5.2,2.1,7.8,3.1
		c-0.2,0-0.5-0.1-0.7-0.1c-0.1,0-0.1,0,0,0c0.3,0.1,0.6,0.1,1,0.2c0.9,0.4,1.8,0.7,2.7,1.1c3.7,1.5,8.1,2.7,12.6,3.9
		c1.4,0.6,2.8,1.3,4.3,1.9c0.2,0.1,0.4,0,0.2-0.1c-0.7-0.3-1.5-0.6-2.2-1c2.1,0.9,4.3,1.7,6.6,2.5c0,0,0,0,0,0c2,1,3.9,2,5.7,3
		c0,0,0,0,0,0c0,0,0,0,0.1,0c0,0,0.1,0,0.1,0c0,0,0.1,0,0.1,0.1c0.4,0.3,1.6,0,1.2-0.3c0,0,0,0,0,0c0.3,0,0.5-0.1,0.4-0.2
		c-0.1-0.1-0.2-0.1-0.2-0.2c0.1,0,0.1,0.1,0.2,0.1c0.2,0,0.4-0.1,0.2-0.1c-0.3-0.1-0.5-0.2-0.7-0.3c-0.1-0.1-0.1-0.1-0.2-0.2
		c-0.4-1.6-2.1-3.1-3.1-4.6c-2-2.8-3.2-5.7-4.8-8.6h0c-0.2-0.6-0.3-1.3-0.6-1.9c-0.1-0.3-0.2-0.6-0.3-0.9c0,0,0,0,0,0
		c1.4-0.1,2.7-0.7,1.8-1.5c-0.2-0.2-0.3-0.4-0.4-0.7c0-0.2-0.1-0.3-0.1-0.5c0.1,0,0.3,0,0.4-0.1c0.3-0.1,0.4-0.2,0.3-0.3
		c2.3,0,4.6,0,7,0c4.5,0,8.9,0,13.4-0.1c0.3,0,0.3-0.2,0-0.2c-1.8,0-3.7,0-5.5,0c0.7-0.1,1.4-0.1,2.1-0.1c0.2,0,0.3,0,0.4-0.1
		c0,0,0.1,0,0.1,0c0,0,0,0,0.1,0c0.9-0.1,1.7-0.2,2.4-0.4c0.4,0,0.8,0,1.4-0.1c0.5,0,0.8-0.2,1-0.3c0,0,0,0,0.1,0
		c0.4,0,0.7-0.2,0.6-0.4c-0.1-0.1-0.1-0.3-0.1-0.4c1.8-1.1,2.3-2.5,2.2-4c0.3,0,0.6,0,0.9,0c-0.2,1.4-0.3,2.8-0.5,4.2
		c0,0.2,0.6,0.2,0.6,0c0.3-1.4,0.4-2.8,0.6-4.2c0,0,0.1,0,0.1,0c-0.1,0.4-0.2,0.9-0.2,1.3c0,0.2,0.8,0.3,0.9,0.1
		c0.2-0.5,0.3-1,0.5-1.5c1.2-0.1,2.5-0.1,3.7-0.2c0.5,0,0.4-0.4-0.1-0.4c-1.1,0-2.3,0-3.4,0.1c0.3-1.4,0.5-2.8,0.2-4.1
		c0-0.1-0.2-0.1-0.3-0.1c0.4,0,0.7,0,1.1,0c0.5,0,0.5-0.4,0-0.5c-0.5,0-1.2-0.1-1.8-0.1c0.4-4.7,0.6-9.5,0.5-14.2
		c0-0.1-0.3-0.1-0.3,0c0,1.3-0.2,2.5-0.2,3.8c0.1-2.2,0.1-4.4,0.1-6.5c2-6.3,3-12.7,3-19.1c0,0-0.1,0-0.1,0c0.1-1.4-0.1-2.8-0.1-4.2
		c0.3-0.1,0.5-0.2,0.5-0.3c0-0.1,0-0.3-0.1-0.4c0.2,0,0.4-0.1,0.5-0.1c1.3-0.3,1.5-0.8,1-1.3c0.6,0,1.3,0,1.9-0.1
		C233,3,233.1,2.7,232.7,2.8z M28.3,56.8C28.3,56.8,28.3,56.8,28.3,56.8c-0.1,1.2-1.2,2.7-1.4,3.6c0.3-1.3,0.8-2.6,1.4-3.8
		C28.3,56.6,28.3,56.7,28.3,56.8z M143,3.7c-1.7,0-3.5,0.1-5.2,0.1c-5.3-0.1-10.7-0.1-16-0.2c3.1-0.1,6.1-0.1,9.2-0.2
		C135,3.6,139,3.7,143,3.7z M126.5,3.3c-3.4,0.1-6.8,0.2-10.2,0.2c0.3,0,0.3-0.2,0-0.2c-12.2,0-24.4-0.1-36.6-0.1
		c-0.7,0-1.4-0.1-2.2-0.1C93.6,2.3,110.1,2.9,126.5,3.3z M115.9,3.6c-1.5,0-2.9,0.1-4.4,0.1c-1.6,0-3.2,0-4.8,0
		c-0.1,0-0.1,0-0.2,0.1c-4.7,0-9.4,0-14.2-0.1C100.2,3.6,108.1,3.6,115.9,3.6z M76.1,3.2c0.3,0,0.5,0,0.8,0.1c-0.6,0-1.2,0-1.7,0
		C75.5,3.2,75.8,3.2,76.1,3.2z M56.4,3.6c0.1,0,0.1-0.1,0.2-0.1c9.6,0.1,19.2,0.2,28.8,0.2c8.4,0.3,16.7,0.4,25.1,0.3
		c6.8,0,13.7,0.1,20.5,0.2c-4.1,0.2-8.2,0.3-12.3,0.5C97.1,4.2,75.6,4.2,54,3.8C54.8,3.8,55.6,3.7,56.4,3.6z M48.1,3.3
		c1,0.2,2,0.4,3.1,0.5c-1.9,0-3.9-0.1-5.8-0.1c-0.1-0.1-0.2-0.3-0.3-0.4C46,3.2,47,3.2,48.1,3.3z M43.6,3.2c0.2,0,0.4,0,0.6,0
		c0.1,0.1,0.2,0.3,0.4,0.4c-0.5,0-1,0-1.5,0C43.2,3.4,43.4,3.3,43.6,3.2z M40.9,3.1c0,0.1,0,0.3,0,0.4c-0.2,0-0.4,0-0.6,0
		c0-0.1,0-0.3-0.1-0.4C40.5,3.1,40.7,3.1,40.9,3.1z M38.6,3.5c-0.7,0-1.3,0-2-0.1c0-0.1-0.1-0.3-0.1-0.4c0.7,0,1.4,0,2,0.1
		C38.6,3.2,38.6,3.3,38.6,3.5z M37.8,2.5c0.2,0,0.3,0,0.4-0.1c0.1,0.1,0.2,0.2,0.3,0.3c0,0,0,0,0,0c-0.7,0-1.3,0-2-0.1
		c0,0,0-0.1,0-0.1C36.9,2.6,37.4,2.6,37.8,2.5z M35.3,2.6C35.3,2.6,35.3,2.6,35.3,2.6c-0.1,0-0.2,0-0.4,0C35,2.6,35.2,2.6,35.3,2.6z
		 M9.1,4.2C9.1,4.2,9.1,4.2,9.1,4.2C9.2,4.2,9.2,4.2,9.1,4.2C9.2,4.2,9.2,4.2,9.1,4.2C9.2,4.2,9.2,4.2,9.1,4.2z M10.4,5.9
		c1.2,1.7,2.3,3.3,3.3,5c-1.2-1.2-2.2-2.5-3.2-3.8c-0.1-0.2-0.2-0.5-0.3-0.7C10.5,6.3,10.7,6.1,10.4,5.9z M9.8,5.4
		c0.1,0,0.1-0.1,0.1-0.2c0.2,0.2,0.3,0.5,0.5,0.7C10.1,5.7,10,5.5,9.8,5.4z M19.4,23.4c0-0.1-0.1-0.2-0.1-0.3c0,0-0.1,0-0.1,0
		c-3.3-4.5-6.9-8.9-9.1-13.5c0.3,0.3,0.6,0.6,0.9,0.9c0.1,0.1,0.3,0.1,0.6,0.1c0.2,0.3,0.4,0.6,0.6,1c0,0,0,0,0,0c0,0,0,0,0,0
		c1.2,1.9,2.5,3.8,3.9,5.7c1.2,2,2.4,4,3.5,6.1c0,0,0,0,0,0c0.1,0.3,0.2,0.6,0.4,0.8C19.8,23.9,19.6,23.6,19.4,23.4z M13.8,10.7
		c0.3,0.4,0.6,0.9,0.9,1.3c0,0,0,0,0-0.1C14.4,11.6,14.1,11.1,13.8,10.7z M22.9,28.4c-0.2-0.4-0.4-0.7-0.7-1.1
		c-0.1-0.2-0.2-0.5-0.3-0.7c-0.2-0.8-0.6-1.7-0.8-2.5c0.1,0.1,0.1,0.2,0.2,0.3C21.8,25.8,22.4,27.1,22.9,28.4
		C22.9,28.5,22.9,28.5,22.9,28.4z M83.8,60.3c0-0.1,0-0.1-0.2-0.2c1.8,0,3.6-0.1,5.5-0.1c0,0,0,0,0,0c1.5,0,3,0,4.6-0.1
		C90.4,60.1,87.1,60.2,83.8,60.3z M154.7,56.3c-0.1,0-0.3,0-0.4,0C154.4,56.3,154.6,56.3,154.7,56.3
		C154.7,56.3,154.7,56.3,154.7,56.3z M154.8,58.5c0.2,0,0.4,0,0.6,0c0,0.1,0.1,0.2,0.3,0.2C155.4,58.7,155.1,58.6,154.8,58.5z
		 M155.9,58.8c-0.1,0-0.1,0-0.2-0.1c0.1,0,0.3,0.1,0.4,0.1C156.1,58.8,156,58.8,155.9,58.8z M157.9,59.4c-0.4-0.1-0.8-0.3-1.2-0.4
		c0.2,0,0.5,0,0.7,0.1c0.2,0.1,0.4,0.1,0.6,0.2C157.9,59.3,157.9,59.4,157.9,59.4z M156.2,58.8c0.1,0,0.2,0,0.2-0.1
		c0.1,0,0.2,0.1,0.3,0.1C156.6,58.9,156.4,58.8,156.2,58.8z M157.5,58.9c-0.2-0.1-0.4-0.2-0.7-0.2c0,0,0.1-0.1,0.1-0.1c0,0,0,0,0,0
		c0,0,0.1,0,0.1-0.1c0.1,0,0.1,0,0.2,0c0.4,0.1,0.8,0.3,1.2,0.4C158.1,59,157.8,59,157.5,58.9z M158.5,58.6
		c-0.2-0.1-0.4-0.1-0.5-0.2c0.2,0,0.3,0,0.5-0.1C158.4,58.4,158.4,58.5,158.5,58.6C158.5,58.5,158.5,58.5,158.5,58.6z M159.7,58.9
		C159.7,58.9,159.7,58.9,159.7,58.9c-0.2,0-0.3-0.1-0.4-0.1c0.3,0,0.6,0,0.8-0.1c0.4,0.1,0.7,0.2,1.1,0.4
		C160.6,58.9,160.1,58.9,159.7,58.9z M160.3,56c0.2,0,0.5,0,0.7,0c0,0-0.1,0-0.1,0c-0.2,0-0.3,0-0.5,0C160.4,56,160.4,56,160.3,56z
		 M198,73.7c-0.9-0.4-1.8-0.9-2.8-1.3c0.6,0.1,1.1,0.3,1.7,0.4c0.5,0.2,0.9,0.4,1.4,0.7C198.1,73.5,198,73.6,198,73.7z M199.1,73.6
		C199.1,73.6,199.1,73.6,199.1,73.6C199.1,73.6,199.1,73.6,199.1,73.6c-0.1-0.1-0.2-0.1-0.2-0.1c0,0,0,0-0.1,0
		c-0.3-0.1-0.6-0.3-0.9-0.4c0.3,0.1,0.5,0.1,0.8,0.2c0.3,0.2,0.6,0.3,0.8,0.5C199.4,73.7,199.3,73.6,199.1,73.6z M203.3,74.6
		c0.1,0.2,0.2,0.3,0.3,0.5c-0.3-0.1-0.5-0.3-0.8-0.4c-0.8-0.8-1.4-1.6-1.9-2.4c-0.1-0.1-0.1-0.2-0.2-0.3
		C201.5,72.9,202.3,73.8,203.3,74.6z M198.2,66.3c-0.1-0.2-0.1-0.5-0.2-0.9c1.1,2.6,2.2,5.2,4.2,7.8c-1.3-1.5-2.5-2.9-3.7-4.4
		c-0.2-0.3-0.4-0.6-0.6-1c0,0,0,0,0-0.1c-0.1-0.3-0.3-0.5-0.4-0.8c0.4,0,0.8-0.1,0.7-0.4C198.3,66.5,198.3,66.4,198.2,66.3z
		 M219,50.6c-1.3,0.1-2.6,0.1-3.8,0.2c0.1-0.3,0.1-0.5,0.2-0.8c1.3,0,2.7,0,4-0.1C219.3,50.2,219.1,50.4,219,50.6z M220.4,47.2
		c0-0.2,0-0.3,0-0.5c0,0,0,0,0,0c0,0,0.1,0,0.1,0C220.5,46.9,220.4,47.1,220.4,47.2z M220.6,46.5c-0.1,0-0.1,0-0.2,0c0,0,0,0,0-0.1
		c0.1,0,0.2,0,0.2,0C220.6,46.4,220.6,46.5,220.6,46.5z M220.8,45.7c-0.1,0-0.2,0-0.4,0.1c0-0.6,0.1-1.3,0.1-1.9
		c0-0.1-0.3-0.1-0.3,0c0,0.7-0.1,1.3-0.2,2c-0.1,0-0.1,0-0.2,0c-0.1,0-0.1,0-0.1,0.1c0.1-0.8,0.2-1.5,0.4-2.3c0.4,0,0.8-0.1,1.2-0.1
		C221.1,44.4,221,45,220.8,45.7z M221.3,43.2c-0.4,0-0.8,0.1-1.2,0.1c1.7-10.5,2.9-21.1,4.5-31.6c0-0.1-0.3-0.1-0.3,0
		c-1.8,10.6-3.3,21.1-4.8,31.7c-0.8,0.1-1.5,0.3-1.9,0.6c0,0,0,0.1,0,0.1c0.4,0.2,0.4,0.2,1,0.3c0.2,0,0.3-0.1,0.2-0.1
		c-0.8-0.3-0.2-0.5,0.6-0.6c-0.2,1.6-0.5,3.2-0.7,4.9c0,0.1,0.5,0.1,0.5,0c0.1-0.8,0.2-1.5,0.4-2.3c0.1,0.1,0.2,0.2,0.3,0.2
		c-0.1,0.9-0.2,1.9-0.3,2.8c-1.4,0.1-2.8,0.1-4.1,0.2c0.1-0.9,0.1-1.7,0.2-2.6c0,0-0.2,0-0.2,0c-0.3,0.9-0.6,1.8-0.9,2.7
		c-0.3,0-0.7,0.1-1,0.1c-0.2,0-0.2,0.2,0,0.2c0.3,0,0.6,0,0.9,0c-0.1,0.3-0.1,0.6-0.2,0.9c-0.8,0.1-1.5,0.1-2.3,0.2
		c0-0.2,0-0.4,0-0.5c0-0.2-0.6-0.2-0.7,0c-0.2,0.5-0.4,1-0.6,1.5c-0.1,0.3-0.3,0.5-0.6,0.8c-0.4,0.4-1.2,0.3-1.9,0
		c0,0,0.1,0,0.1-0.1c0,0,0,0,0,0c0,0,0.1,0,0.1,0c-0.5-0.4-0.5-0.4-1.5-0.5c-0.3,0-0.6,0.1-0.4,0.2c0.1,0,0.1,0.1,0.2,0.1
		c-2.5-0.1-6.2-0.1-7.5,0.6c-0.3,0.1,0.2,0.3,0.5,0.2c1.7-0.8,5.3-0.2,7.7-0.5c0.8,0.4,2,0.8,2.9,0.3c1.1-0.5,1.4-1.2,1.5-1.9
		c0.7,0,1.5-0.1,2.2-0.1c-0.1,0.4-0.2,0.7-0.3,1.1c0,0.2,0.6,0.2,0.7,0c0.2-0.4,0.4-0.8,0.5-1.2c1.2,0,2.4-0.1,3.7-0.1
		c-0.8,1.3-1.9,2.4-3.3,3c-0.9,0.3-1.9,0.5-3,0.7c-0.4,0-0.8,0-1.2,0c-0.2,0-0.4,0-0.6,0.1c0,0-0.1,0-0.1,0
		c-0.3-0.2-0.7-0.3-1.4-0.3c-5.8,0-11.5,0.3-17.2,0.7h0c-0.2,0-0.4,0-0.6,0c-1.5,0.1-1.9,0.8-1.4,1.3c-0.1,0-0.2,0.1-0.3,0.1
		c-0.3,0-0.7,0-1,0c-0.4,0-0.4,0.3,0,0.3c0.3,0,0.5,0,0.8,0c0,0,0,0.1,0,0.1c0.1,0.1,0.2,0.2,0.3,0.3c0,0.1,0.1,0.3,0.5,0.5
		c0.2,0.2,0.4,0.4,0.6,0.7c0,0,0,0,0,0l0,0c0,0,0.1,0.1,0.1,0.1c0.2,0.1,0.5,0.2,0.8,0.2c0.1,0.1,0.1,0.2,0.2,0.3
		c0.1,0.4,0.2,0.8,0.3,1.1c-0.1-0.1-0.4,0-0.3,0c0.9,1.3,1.8,2.6,2.8,3.9c1.3,2.5,2.8,5,4.6,7.4c0,0.1,0.1,0,0.2,0.1
		c0.4,0.6,0.8,1.3,1.3,1.9c-0.1,0-0.2-0.1-0.3-0.1c0,0,0.1-0.1,0-0.1c-0.8-0.3-1.7-0.6-2.5-0.9c-2.5-0.9-5.1-1.8-7.7-2.7l0,0
		c-1.7-0.8-3.5-1.5-5.3-2.1c-2.4-1.1-4.8-2.2-7.3-3.3c-1.6-0.7-3.4-1.3-5.4-1.9c-0.1-0.1-0.1-0.1-0.2-0.2c-0.3-0.1-1.1-0.4-2.1-0.8
		c-0.9-0.4-1.8-0.7-2.7-1c-1.6-0.6-3.2-1.2-4.9-1.8c-0.3-0.2-0.6-0.4-0.9-0.5c-0.1-0.1-0.3,0-0.2,0.1c0.1,0.1,0.3,0.2,0.4,0.3
		c-0.3-0.1-0.7-0.2-1-0.3c0,0,0,0,0,0c0.1-0.1,0.2-0.2,0.3-0.2c0.3,0,0.7,0,1,0c0.4,0,0.4-0.3,0-0.3c-0.2,0-0.4,0-0.7,0c0,0,0,0,0,0
		c0.4,0,0.7-0.1,1.1-0.1c1.7,0.7,3.3,1.4,5.1,2.1c0.2,0.1,0.5,0,0.3-0.1c-1.7-0.7-3.3-1.3-4.9-2c0.6-0.1,1.2-0.1,1.7-0.2
		c1.8,0.8,3.6,1.5,5.4,2.2c0.2,0.1,0.6,0,0.4-0.2c-1.6-0.8-3.5-1.4-5.3-2.1c0.4-0.1,0.8-0.1,1.1-0.2c1.5,1.3,4.6,2.5,6.8,3.4
		c0.2,0.1,0.7,0,0.5-0.2c-1.3-0.7-2.7-1.3-4.1-2c-1-0.5-1.9-1-2.6-1.6c0.3-0.1,0.5-0.3,0.3-0.4c0.2,0,0.4-0.1,0.6-0.1c0,0,0,0,0,0
		c0.2,0.3,0.4,0.6,0.6,0.9c0,0,0,0,0,0c-0.2,0.1,0.3,0.3,0.5,0.1c0,0,0,0,0,0c0.5,0.5,1.1,0.9,2.1,1.2c0.3,0.1,0.6-0.1,0.5-0.2
		c-0.5-0.5-1.1-0.9-1.8-1.4c0.8-0.4,1.6-0.6,2.3,0.1c0.1,0.1,0.2,0.1,0.4,0.1c0.1,0,0.1,0.1,0.1,0.1c0.2,0.1,0.7,0.1,0.8,0
		c0.2-0.3-0.2-0.6-0.5-0.9c0.6,0,1.2,0,1.8,0c0.3,0,0.3-0.2,0-0.2c-0.6,0-1.3,0-1.9,0c0,0-0.1-0.1-0.1-0.1c0,0-0.1-0.1-0.2-0.1
		c0.1,0,0.2,0,0.2,0c0.3,0,0.2-0.2-0.1-0.2c-2.2,0-4.4,0.1-6.6,0.1c0-0.1-0.1-0.1-0.1-0.2c-0.1-0.1-0.5,0-0.5,0.1c0,0,0,0.1,0.1,0.1
		c-0.3,0-0.6,0-0.9,0c0,0,0.1,0,0.1,0c0.8-0.4-0.5-1-1.4-0.6c-0.4,0.2-0.9,0.4-1.4,0.6c-0.7,0-1.3,0.1-2,0.1c-0.3-0.2-1-0.4-1.6-0.2
		c-0.5,0.1-1.1,0.2-1.6,0.3c-2.2,0.1-4.4,0.2-6.6,0.3c-0.6-0.2-1.2-0.5-1.8-0.7c0,0-0.1,0-0.1,0c0.5,0.2,1.1,0.5,1.7,0.7
		c-2.4,0.1-4.8,0.2-7.2,0.3c-7.3,0.1-14.6,0.3-21.9,0.5c-3.9,0-7.6,0.1-11.3,0.3c-20.6,0.6-41.2,1.5-61.6,2.9
		c-3.2,0.1-6.3,0.3-9.5,0.4c-1.7,0.1-3.3,0-4.9,0c0.7-0.5-0.5-0.9-1.6-0.8c0-0.1,0-0.1,0-0.2c0.1-0.1,0.2-0.2,0.3-0.2c0,0,0,0,0-0.1
		c0.4-0.1,0.7-0.2,0.7-0.4c0-0.6,0-1.1,0-1.7c0,0,0.1,0,0.1,0c0-0.1,0-0.2-0.1-0.2c0-3.8-0.4-7.7-1.6-11.5c-0.2-0.8-0.4-1.6-0.6-2.4
		c-0.2-0.6-0.3-1.2-0.5-1.8c-0.2-1-0.4-2-0.7-3.1c1.1,2.2,2.1,4.4,3,6.6c0.1,0.2,0.6,0.1,0.6-0.1c-1.6-4.2-3.5-8.3-5.7-12.4
		c-0.8-1.8-1.7-3.5-2.9-5.2C21.6,19.5,17.6,12,10.4,5c0.1,0,0.2-0.1,0.1-0.1C10,4.5,9.6,4.1,9.2,3.7c0,0,0,0,0,0
		c0.7-0.8,7.9-0.5,9.4-0.5c2.8-0.1,5.6-0.2,8.3-0.3c2.5,0,4.9,0,7.4,0c0.3,0,0.7,0,1,0c0,0.1,0.1,0.3,0.1,0.4
		c-2.9-0.1-5.7-0.2-8.6-0.3c-0.2,0-0.2,0.1,0,0.1c2.9,0.1,5.8,0.2,8.7,0.3c0.1,0.4,0.3,0.8,0.6,1.1c-0.5,0-1,0-1.5,0c0,0,0,0,0,0
		c-0.5,0-0.9,0.1-0.9,0.3c0.1,0,0.2,0,0.2,0c0.2,0,0.5,0,0.9,0c0,0,0,0,0,0c-0.4,0-0.7,0-1.1,0.1c-0.1,0.2,0.2,0.5,0.9,0.5
		c2.5,0,4.8,0,7.2-0.3c0.6-0.1,0.6-0.4,0-0.5c-1.7-0.2-3.2-0.2-4.8-0.1c-0.1-0.3-0.2-0.7-0.2-1.1c0.7,0,1.3,0.1,2,0.1
		c0,0.2,0.1,0.5,0.4,0.7c0.2,0.2,0.8,0.2,1,0c0.2-0.1,0.2-0.4,0.3-0.7c0.2,0,0.4,0,0.6,0c0,0,0,0.1,0,0.1c0,0.3,1,0.4,1.4,0.2
		c0.1-0.1,0.2-0.2,0.3-0.3c0.7,0,1.5,0,2.2,0.1c0.3,0.2,0.5,0.5,0.9,0.7c0.2,0.1,0.6,0,0.4-0.1c-0.3-0.2-0.5-0.3-0.6-0.5
		c31.1,0.9,62.4,0.7,93.5,1.4c0.3,0,0.3-0.2,0-0.2c-6.6-0.2-13.2-0.4-19.8-0.5c4.3-0.2,8.6-0.4,12.9-0.5c13.5,0.2,27,0.4,40.6,0.3
		c0.3,0,0.3-0.2,0-0.2C161.9,4.2,151,4,140.1,3.9c1.8-0.1,3.6-0.1,5.5-0.1c1.1,0,2.3,0,3.4,0c11.7,0,23.4,0.2,35.1,0.3
		c11.4,0.2,22.8,0.5,34.3,0.4c0.4,0,0.4-0.3,0-0.3c-4.5,0-9-0.1-13.5-0.2c3.1,0,6.2,0,9.3-0.1c0.7,0,0.6-0.4,0-0.4
		c-0.8,0-1.5,0-2.3-0.1c2.1,0,4.2-0.1,6.3-0.1c-0.4,0.1-0.4,0.4,0,0.4c1.5,0.1,2.9,0.2,4.4,0.2c0,0,0,0,0,0c0.3,0.3,1.2,0.4,1.9,0.5
		c0.3,0,0.5,0,0.8,0c-0.8,3.2-0.5,6.5-0.2,9.8c-0.1,1-0.2,1.9-0.3,2.9c-0.2,0.8-0.3,1.6-0.3,2.5c-0.6,5.2-1.4,10.4-2.3,15.7
		C221.9,36.3,221.9,39.6,221.3,43.2z M208,52.7c0,0-0.1,0-0.1,0c-0.1,0-0.1-0.1-0.2-0.1C207.8,52.6,207.9,52.7,208,52.7z M171.4,56
		c-0.1,0-0.3,0-0.4,0c0,0,0,0-0.1,0c-0.2-0.1-0.4-0.1-0.6,0c-0.6,0-1.2,0-1.8,0c0,0,0,0,0,0c1,0,1.9-0.1,2.9-0.1
		C171.4,55.9,171.3,55.9,171.4,56C171.3,56,171.4,56,171.4,56z M169.9,56.2c-0.2,0.1-0.4,0.3-0.7,0.4c-0.2-0.1-0.4-0.3-0.5-0.4
		C169.1,56.2,169.5,56.2,169.9,56.2z M224.7,50.4c-0.3,0-0.6,0-1,0c0-0.1,0-0.1,0-0.2c0.4-1.4,0.7-2.7,1-4.1c0.2,0,0.3,0,0.5,0
		C225,47.6,224.8,49,224.7,50.4z M225.2,45.5c-0.1,0-0.3,0-0.4,0c0.1-0.6,0.2-1.3,0.3-1.9c0.1,0,0.2,0,0.3,0
		C225.4,44.2,225.3,44.8,225.2,45.5z M225.2,43.2c0.2-1.5,0.4-3.1,0.6-4.6c-0.1,1.5-0.1,3.1-0.3,4.6
		C225.4,43.2,225.3,43.2,225.2,43.2z M226.7,46.1c-0.1,0-0.3,0-0.3,0.1c-0.1,0.2-0.1,0.3-0.1,0.5c0,0,0,0,0.1,0
		c-0.3,1.2-0.5,2.5-0.7,3.7c0,0-0.1,0-0.1,0c0.2-1.4,0.3-2.8,0.5-4.3C226.2,46.1,226.4,46.1,226.7,46.1z M227.3,14.6
		c0.1-0.2,0.1-0.4,0.2-0.5c-0.1,0.9-0.3,1.8-0.4,2.8C227.1,16,227.2,15.3,227.3,14.6z M226.3,4.5C226.4,4.5,226.4,4.5,226.3,4.5
		c0,0.1,0,0.2-0.1,0.3c0-0.1-0.1-0.2-0.1-0.3C226.2,4.5,226.3,4.5,226.3,4.5z M226.1,26.6c0-0.3,0-0.5,0-0.8c0.9-3,1.6-5.9,2-8.9
		C227.7,20.2,227,23.4,226.1,26.6z M199.4,65.3c0,0.1,0.3,0.1,0.3,0v-7.1c0-0.1-0.3-0.1-0.3,0V65.3z M81.3,25.9
		c-0.4,0-0.4,0.2,0,0.2C81.6,26.1,81.6,25.9,81.3,25.9z M38.5,51.4c-0.8-4.5-2.9-8.9-4.3-13.3c0-0.1-0.3,0-0.3,0
		c1.3,4.4,3.1,8.9,4.2,13.3C38.1,51.5,38.5,51.5,38.5,51.4z M60.1,56.9c0.1,0,0-0.1-0.1-0.1c-3.9-0.1-7.8,0-11.7,0
		c-0.1-0.1-0.1-0.3-0.2-0.4c6.5,0.1,12.9-0.3,19.3-0.5c0.4,0,0.4-0.3,0-0.3c-5,0-10.1,0.2-15.1,0.4c0-0.1,0-0.1-0.2-0.1
		c-1.4,0-2.8,0-4.2,0c-0.2-0.6-0.3-1.3-0.5-1.9c0-0.1-0.3-0.1-0.3,0c0.2,0.6,0.3,1.3,0.5,1.9c-0.8,0-1.7,0-2.5,0
		c-0.1-0.4-0.2-0.9-0.3-1.3c0.1,0,0.3,0,0.4,0c0.3,0,0.2-0.2-0.1-0.2c-0.1,0-0.3,0-0.4,0c-0.1-0.5-0.2-1-0.2-1.5
		c0-0.1-0.3-0.1-0.3,0c0,0.5,0,1,0,1.5c-0.4,0-0.9,0-1.3,0.1c-0.2-0.6-0.4-1.2-0.6-1.8c0.4,0,0.7,0,1.1,0c0.2,0,0.2-0.1,0-0.1
		c-0.4,0-0.8,0-1.1,0c-0.3-1-0.6-1.9-1-2.9c0-0.1-0.4-0.1-0.3,0c0.4,1,0.7,1.9,1,2.9c-0.1,0-0.1,0-0.2,0c-1-3.4-2-6.8-3.1-10.2
		c0,0-0.2,0-0.2,0c1,3.4,1.6,6.8,2.8,10.2c-0.1,0-0.3,0-0.4,0c-0.9-3-2.2-6-2.2-9.1c0-0.1-0.2-0.1-0.3,0c-0.2,3.1,0.6,6.1,1.5,9.1
		c-1.1,0-2.1,0-3.2,0c-0.2,0-0.2,0.1,0,0.1c1.1,0,2.1,0,3.2,0c0.2,0.7,0.4,1.3,0.6,2c-0.8,0.1-1.5,0.1-2.2,0.2
		c-0.1-0.2-0.3-0.5-0.4-0.7c-0.1-0.1-0.5-0.1-0.4,0c0.1,0.2,0.2,0.5,0.3,0.7C37,55,36.5,55,36,55.2c-0.3,0.1-0.1,0.2,0.2,0.2
		c0.3,0,0.6,0,0.9-0.1c0.1,0,0.1-0.1,0-0.1c0.1,0,0.3,0,0.6,0c0.1,0.3,0.3,0.6,0.4,1c-0.1,0-0.2,0.1-0.2,0.2c0,0.4,0,0.7,0.1,1.1
		c0,0.1,0,0.1,0,0.2c0,0,0,0,0,0c-1,0-2,0-3,0.1c-0.3,0-0.3,0.2,0,0.2c1,0.1,2,0.2,2.9,0.3c0.2,0,0.3-0.1,0.1-0.1
		c-0.4-0.1-0.8-0.1-1.1-0.2c0.5,0,1,0,1.5,0c0.1,0,0.1,0,0.1,0c1.1,0,2.2,0,3.3,0c0.6,0,1.2,0,1.8,0c0.1,0.2,0.1,0.3,0.2,0.5
		c0,0.1,0.4,0,0.3,0c-0.1-0.2-0.1-0.3-0.2-0.5c0.3,0,0.5,0,0.8,0c0.1,0.2,0.1,0.4,0.2,0.6c0.1,0.1,0.6,0.1,0.6,0c0-0.2,0-0.4,0-0.5
		c2.3-0.1,4.7-0.1,7-0.2c0.4,0,0.4-0.3,0-0.3c-1.3,0-2.5,0.1-3.8,0.1c-0.1-0.1-0.1-0.3-0.2-0.4c1.9,0,3.7,0,5.6,0
		c-0.2,0-0.2,0.2,0.1,0.2c12.3-0.1,24.3-0.9,36.6-1.4c0.4,0,0.4-0.3,0-0.3C80.5,55.7,70.3,56.7,60.1,56.9z M44,54.7
		c0,0.4,0,0.8,0.1,1.3c-0.3,0-0.6,0-0.9,0c-0.1-0.4-0.3-0.8-0.4-1.2C43.2,54.7,43.6,54.7,44,54.7z M42.7,55.9c-0.5,0-0.9,0-1.4,0
		c0-0.3-0.1-0.7-0.2-1c0.3,0,0.5,0,0.7-0.1c0,0.1,0,0.1,0.1,0.2c0,0.1,0.3,0,0.2,0c0-0.1,0-0.1-0.1-0.2c0.1,0,0.1,0,0.2,0
		C42.5,55.2,42.6,55.6,42.7,55.9z M41.7,52.6c0.2,0.6,0.4,1.2,0.6,1.9c-0.1,0-0.1,0-0.2,0c-0.2-0.6-0.4-1.2-0.6-1.9
		C41.6,52.6,41.6,52.6,41.7,52.6z M41,52.6c0.2,0.6,0.5,1.3,0.7,1.9c-0.2,0-0.4,0-0.7,0c-0.1-0.6-0.3-1.3-0.5-1.9
		C40.8,52.6,40.9,52.6,41,52.6z M38.7,57.6C38.7,57.6,38.7,57.6,38.7,57.6c0.2-0.5,0.2-0.9,0.1-1.3c0,0,0,0,0,0c0,0,0,0,0,0
		c-0.1-0.4-0.3-0.8-0.5-1.1c0.7-0.1,1.5-0.1,2.1-0.2c0.1,0.3,0.2,0.6,0.3,1c-0.1,0-0.2,0-0.3,0c-0.4,0-0.4,0.2,0,0.3
		c0.1,0,0.3,0,0.4,0c0.1,0.3,0.2,0.7,0.3,1c0,0.1,0.5,0.1,0.5,0c0-0.3-0.1-0.7-0.1-1c0.5,0,1,0,1.4,0c0.1,0.2,0.2,0.4,0.2,0.6
		c-0.2,0-0.3,0-0.5,0c-0.2,0-0.2,0.1,0,0.1c0.2,0,0.4,0,0.5,0c0.1,0.2,0.1,0.4,0.2,0.6C41.8,57.6,40.2,57.6,38.7,57.6z M43.3,56.2
		c0.3,0,0.6,0,0.9,0c0,0.2,0.1,0.4,0.1,0.5c-0.3,0-0.5,0-0.8,0C43.4,56.6,43.4,56.4,43.3,56.2z M43.7,57.5c-0.1-0.2-0.1-0.4-0.2-0.5
		c0.3,0,0.5,0,0.8,0c0,0.2,0.1,0.4,0.2,0.5C44.2,57.5,44,57.5,43.7,57.5z M45.1,56.3c0.9,0,1.7,0,2.6,0c0,0,0,0,0,0c0,0,0,0,0,0
		c0.1,0.2,0.2,0.3,0.2,0.5c-0.9,0-1.8,0-2.7,0C45.2,56.6,45.2,56.4,45.1,56.3z M45.3,57.5c0-0.2,0-0.3,0-0.5c0.9,0,1.8,0,2.8,0
		c0.1,0.1,0.1,0.3,0.2,0.4C47.3,57.4,46.3,57.4,45.3,57.5z M107.5,54.5c-1.1,0.1-2.9,0.4-4,0.2c-0.1,0-0.3,0.1-0.1,0.1
		c1.9,0.4,5.8-0.1,7.8-0.3c0.3,0,0.2-0.2-0.1-0.2C109.8,54.3,108.6,54.4,107.5,54.5z M175,61c-0.1,0-0.3,0-0.3,0.1
		c0.1,0.5,0.8,0.6,1.8,0.7c0.3,0,0.5-0.1,0.3-0.2C176.2,61.3,175.7,61.2,175,61z M180,64.1c0.8,0.7,1.9,1.5,3.6,1.9
		c0.4,0.1,0.8-0.1,0.6-0.2c-0.8-0.7-2.2-1.3-3.5-1.9C180.4,63.7,179.8,63.9,180,64.1z M187.9,67.3c0.2,0.1,0.5,0.3,0.8,0.4
		c0.2,0.1,0.6,0,0.5-0.2c-0.4-0.3-0.3-0.3-1-0.4C187.9,67.2,187.8,67.3,187.9,67.3z M212.2,38.7c-0.3,4.2-2.3,8.4-1.8,12.6
		c0,0.2,0.6,0.2,0.6,0c0.8-4.2,1.5-8.4,1.4-12.6C212.4,38.6,212.2,38.6,212.2,38.7z M213.4,45.7c-0.1,1.6-0.6,3.2-1.1,4.8
		c0,0.1,0.5,0.2,0.6,0c0.8-1.6,0.9-3.2,0.8-4.8C213.7,45.6,213.4,45.6,213.4,45.7z M213.5,53.2c0-0.3-0.1-0.6-0.1-1
		c0-0.2-0.7-0.3-0.9-0.1c-0.5,0.3-0.7,0.6-0.7,1c0,0,0,0.1,0,0.1c0,0,0,0,0.1,0C211.8,53.6,213.5,53.8,213.5,53.2z M215.4,26.9
		c0,0.1-0.1,0.2-0.1,0.3c-0.1,0.2,0,0.3,0.4,0.4c0.1,0,0.2,0.1,0.3,0.1c0.1,0,0.2,0,0.3,0c0.1,0,0.2-0.1,0.3-0.1
		c0.3-0.1,0.4-0.2,0.4-0.4c0-0.1-0.1-0.2-0.1-0.3C216.7,26.6,215.5,26.6,215.4,26.9z M216.3,30.4c0-0.2-0.6-0.3-0.9-0.1
		c-0.4,0.3-0.4,0.3-0.4,0.6c-0.6,0.2-0.8,0.6,0,0.8c0,0,0,0,0.1,0c-0.1,1.1-0.2,2.2-0.3,3.2c0,0.1,0.3,0.1,0.3,0
		c0-1,0.1-2.1,0.2-3.1c0,0,0.1,0.1,0.1,0.1c0,0.1,0.4,0.1,0.4,0c0.1-0.1,0.2-0.2,0.3-0.3c0.6-0.2,0.7-0.5,0.2-0.7
		C216.4,30.7,216.4,30.5,216.3,30.4z M220,5.8c-0.5,0.1-0.8,0.1-1.1,0.2c-0.3,0-0.6,0-0.9,0c-2-0.2-4-0.1-6-0.1
		c-0.2,0-0.2,0.1,0,0.1c1.5,0,2.9,0.1,4.4,0.2c0,0,0,0,0.1,0c0.5,0,1,0,1.6,0c0,0,0.1,0.1,0.2,0.1c0.5,0.1,0.8,0.2,1.2,0.3
		c0,0.1,0.1,0.1,0.1,0.2c-1.4,0.1-1.4,1.1,0.2,1.1c1.2,0,1.5-0.6,0.9-0.9c0.3-0.1,0.5-0.2,0.7-0.4C221.7,6.1,221,5.6,220,5.8z
		 M203.9,5.4c-0.3,0.1-0.4,0.2-0.2,0.3c-0.2,0.2,0.1,0.4,0.6,0.4c0.8,0,0.9,0,1.7-0.1c0.5-0.1,0.5-0.5,0-0.6
		C205,5.2,205,5.2,203.9,5.4z M61.7,56.4c4.7-0.1,9.5-0.1,14.1-0.5c0.2,0,0.1-0.1,0-0.1C71,55.9,66.4,56.2,61.7,56.4
		C61.6,56.4,61.6,56.4,61.7,56.4z M95.2,54.9c-0.3,0-0.3,0.2,0,0.2c1.1,0,2.1,0,3.2,0c0.3,0,0.3-0.2,0-0.2
		C97.3,54.9,96.3,54.9,95.2,54.9z M28.3,5.1c0.1,0,0.1,0,0.2,0c0.6,0,0.7-0.4,0-0.4c-1.6-0.1-3.2,0-4.9,0c0-0.1,0-0.2,0-0.3
		c0-0.1-0.4-0.1-0.4,0c0,0.1,0,0.2,0,0.3c-1,0-1.9,0.1-2.9,0.1c-0.1,0-0.1-0.1-0.2-0.1c-0.2-0.1-0.5,0-0.4,0.1c0,0,0,0,0,0
		c-0.3,0-0.5,0-0.8,0c-0.1-0.1-0.2-0.3-0.3-0.4c-0.2-0.3-1.2-0.2-1.1,0.1c0,0.1,0.1,0.2,0.1,0.3c-0.1,0-0.2,0-0.3,0
		c-0.5,0-0.9,0.2-0.7,0.4c0.4,0.5,0.7,1,1.1,1.5C17.8,7,18.5,7,18.8,6.9c0.3,0.1,0.6,0,0.7-0.1c0.2-0.4,0.1-0.9-0.2-1.3
		c0.3,0,0.5,0,0.8,0c0.3,0.6,0.5,1.3,1.1,1.9c0.2,0.2,0.8,0.1,0.8-0.1C22,6.7,21.7,6,21.1,5.4c0.6,0,1.3,0,1.9-0.1
		c-0.1,0.7,0,1.3,0.7,2c0.2,0.1,0.6,0,0.5-0.1c-0.3-0.6-0.5-1.3-0.6-1.9c0.5,0,0.9,0,1.4,0c0,0.4,0.4,0.8,0.9,1.1
		c0.1,0.1,0.5,0.1,0.6,0c0.4-0.3,0.6-0.5,0.8-0.8c1.3,0.3,3.5,0.6,3.9-0.1c0-0.1,0-0.1-0.2-0.1C30.1,5.2,29.2,5.2,28.3,5.1z
		 M26.3,5.2c0.1,0.2-0.1,0.1-0.4,0C26,5.2,26.2,5.2,26.3,5.2C26.3,5.2,26.3,5.2,26.3,5.2z M33.6,5.1C33.6,5.1,33.7,5.1,33.6,5.1
		c-0.5,0-1,0-1.6,0C32.6,5.2,33.1,5.2,33.6,5.1z M30.5,5.3c0.5-0.1,1-0.1,1.6-0.1c-0.6,0-1.1,0-1.6-0.1C30,5,30.1,5.4,30.5,5.3z
		 M56.5,5.5c2.1,0,4.1,0.1,6.2-0.1c0.4,0,0.4-0.3,0-0.3c-3.6-0.3-10.3-0.7-13,0.7c-0.1,0.1,0,0.1,0.2,0.1
		C52.2,5.8,54.3,5.5,56.5,5.5z M110.2,60.7c-3.6,0-7.7,0-11.2,0.4c-0.3,0-0.3,0.2,0,0.2c3.6,0.3,7.8,0.1,11.4-0.2
		C110.9,61.1,110.8,60.7,110.2,60.7z M130.6,59.8c-0.1,0-0.1,0-0.1,0c-0.1,0-0.2,0-0.2,0c0,0-0.1,0-0.1,0.1c0,0,0,0,0,0.1
		c0,0,0,0.1,0,0.1c0,0,0,0,0.1,0.1c0.1,0,0.1,0,0.2,0c0,0,0.1,0,0.1,0c6.2,0.1,12.6,0.2,18.8-0.1c0.4,0,0.4-0.3,0-0.3
		C143.2,59.7,136.9,59.7,130.6,59.8z M152.1,60.2c0-0.3-0.9-0.3-0.9,0c0,1.6,6.2,2.6,9.1,3c0.4,0.1,0.7-0.2,0.3-0.3
		C158.3,62.4,152.2,61.4,152.1,60.2z M176.7,67.2c-2.4-0.8-4.9-1.5-7.5-2.2c-1-0.3-2.2-0.6-3.3-0.8c0.2,0-4.3-0.4-2.2-0.2
		c0.2,0,0.3-0.1,0.1-0.1c-0.4-0.1-0.8-0.1-1.3-0.2c-0.3,0-0.4,0.1-0.2,0.2c10.4,2.2,18.6,5.7,28.3,8.4c0.4,0.1,0.7-0.1,0.3-0.2
		C186.2,70.5,181.6,68.8,176.7,67.2z M200.6,59.9c0.1,0.2,0.9,0.2,1,0c0.1-0.3,0.4-0.6,0.3-0.9c0-0.2-0.5-0.3-0.9-0.2
		C200.2,59.1,200.5,59.4,200.6,59.9z M228.8,43.2c0,0.2,0.7,0.2,0.8,0c0.6-5.5,1.1-11,1.4-16.4c0-0.1-0.3-0.1-0.3,0
		C229.7,32.3,228.3,37.8,228.8,43.2z M4.2,4.5c2.3,2.8,4,5.7,5.5,8.7c0.1,0.1,0.5,0.1,0.5-0.1C9,10.1,6.9,7.3,4.2,4.5
		C4.3,4.5,4.2,4.5,4.2,4.5z M4.7,2.5c-0.4-0.4-1.1-0.7-1.9-1c0.4-0.2,1-0.4,1.6-0.5C4.6,1,4.5,0.8,4.2,0.8C3.3,0.9,2.6,1.1,2,1.3
		C1.7,1.2,1.4,1.1,1.1,1.1C0.7,1-0.1,1.1,0,1.3C0.1,1.9,0.3,2.4,0.4,3C0.5,3.1,1,3.1,1,3c0.1-0.3,0.2-0.7,0.3-1
		C2.2,2.2,3.1,2.5,4,2.7C4.3,2.8,4.8,2.7,4.7,2.5z M27.9,1.1c0.6,0,0.6-0.4,0-0.4c-6-0.2-12,0.4-17.9-0.1c0.1,0,0.2,0,0.3,0
		c0.4,0,0.4-0.3,0-0.3c-1.1,0-2,0-3,0.1c-0.5,0.1-0.4,0.4,0,0.4C13.6,1.9,21.3,1.5,27.9,1.1z M67.1,1.5c0.5,0,0.5-0.3,0-0.3
		c-6.8-0.3-13.6-0.6-20.4-0.4c-0.2,0-0.2,0.1,0,0.1C53.5,0.9,60.3,1.4,67.1,1.5z"/>
</g>
</svg>
