<?xml version="1.0" encoding="utf-8"?>
<!-- Generator: Adobe Illustrator 19.2.1, SVG Export Plug-In . SVG Version: 6.00 Build 0)  -->
<svg version="1.1" id="Layer_1" xmlns="http://www.w3.org/2000/svg" xmlns:xlink="http://www.w3.org/1999/xlink" x="0px" y="0px"
	 viewBox="0 0 233 77.6" style="enable-background:new 0 0 233 77.6;" xml:space="preserve">
<style type="text/css">
	.st0{fill:#474748;}
</style>
<g>
	<path class="st0" d="M2.2,5.9c0.7,0,1.5,0,2.2,0.1c0.4-0.2,1-0.4,1.7-0.5c0,0,0,0,0,0c0-0.1,0.3-0.1,0.3,0c0,0,0,0,0,0
		c0.2,0,0.4,0,0.7,0c1.6,0.2,3.6,0.2,4.8,0.6c5.7,0.1,11.5,0.2,17.2,0.3c2.2-0.1,4.3-0.1,6.5-0.2c13.3-0.5,26.7-0.8,40-0.4
		c6.8,0,13.6,0,20.4,0c21,0,42.5-1.9,63.1,0.2c0.1,0,0.1,0,0.2,0.1c1.9-0.1,3.8-0.2,5.6-0.4c0.2,0,0.3,0.1,0.1,0.1
		c-1.9,0.2-3.7,0.3-5.6,0.4c0,0.1-0.2,0.1-0.5,0.2c3.8,0,7.7,0,11.5-0.1c0,0,0,0,0,0c3.9-0.1,7.8-0.2,11.7-0.2c-0.1-0.1-2,0-1.9,0
		c-1,0-1.9,0-2.9,0.1c-2,0-4.1,0-6.1-0.1c-0.5,0-0.5-0.3,0-0.3c3.9-0.1,7.9,0,11.8,0c0.2,0,0.4,0.1,0.3,0.2
		c-0.1,0.1-0.1,0.1-0.2,0.1c0.9,0,1.8,0,2.7,0c0.1,0,0.3-0.1,0.4-0.1c0.2-0.1,0.5,0,0.6,0.1c0.7,0,1.3,0,2,0
		c0.1-0.2,0.2-0.5,0.4-0.7c0.2-0.2,1-0.3,1.2,0c0.1,0.2,0.4,0.5,0.7,0.7h0.4c0.2-0.5,0.5-0.9,1.5-1.2c0.3-0.1,0.8,0,0.6,0.2
		c-0.5,0.3-0.7,0.7-0.8,1c0.2,0,0.4,0,0.7,0c0.4-0.9,1.4-1.7,3.3-1.4c0.2,0,0.3,0.1,0.2,0.2c-0.3,0.2-0.7,0.4-0.9,0.5
		c0.5,0,1,0,1.5,0c0.3-0.6,0.6-1.2,1-1.8c0.1-0.1,0.6-0.1,0.5,0.1c-0.4,0.6-0.5,1.2-0.5,1.7c5.1-0.1,10.1,0,15.2,0.2
		c2.3-0.1,4.5-0.1,6.8-0.2c0.2,0,0.2,0.1,0,0.1c-1.5,0.1-3.1,0.1-4.6,0.2c2.9,0.1,5.7,0.2,8.6,0.2c-0.1,0-0.1-0.1-0.1-0.1
		c-0.2-0.1,0.2-0.3,0.5-0.2c0.5,0.2,0.9,0.4,1.3,0.6c0.2,0-10.5,0-10.3,0c0.2,0-1.1,0.1-1.1,0.1s11.7,0,11.6,0
		c0.3,0.2,0.5,0.4,0.6,0.6c0,0,0.1-0.1,0.1-0.1c0.1-0.1,0.6-0.1,0.5,0.1c-0.1,0.1-0.2,0.2-0.3,0.3c0.3,0.6,0.3,1.2,0.2,1.9
		c-0.1,0.2-0.8,0.4-1.3,0.3c-0.5,0.8-1.2,1.7-2,2.5c-0.8,1.9-1.9,3.9-3.1,5.7c-3.2,5.4-5.9,10.9-8.2,16.4c0,0.1-0.3,0-0.2,0
		c1.9-4.7,4.2-9.3,6.7-14c-1.4,2-3,3.9-4.5,5.9c-3.1,8-4.9,16-7.1,24.1c0,0.4,0,0.9,0,1.3c0,0-0.2,0-0.2,0c0-0.3,0-0.5,0-0.8
		c-0.3,1.1-0.6,2.2-0.9,3.3c0,0.1-0.5,0.1-0.5,0c0.5-2.1,1-4.3,1.5-6.4c0-2.6,0-5.2,0-7.9c0,0,0.1,0,0.1,0c0,2.4,0,4.8,0,7.2
		c1.5-6.4,3.3-12.7,5.7-19.1c-0.7,0.9-1.4,1.9-2,2.9c-1.1,2.8-2.1,5.5-3.1,8.3c0,0.1-0.3,0-0.2,0c0.6-2.2,1.4-4.3,2.2-6.5
		c-0.1,0.2-0.2,0.3-0.3,0.5c0,0.1-0.1,0-0.2,0.1c-0.3,0.8-0.6,1.5-0.9,2.3c0,0.1-0.4,0.2-0.7,0.1c-0.4,0.9-0.8,1.8-1.1,2.8
		c-0.2,0.9-0.4,1.8-0.6,2.8c0,0,0,0,0,0c0,0.1-0.1,0.3-0.1,0.4c-0.7,3.4-0.9,6.9-1.1,10.3c0,0.1,0.1,0.1,0.1,0.2
		c0,0.1-0.1,0.1-0.2,0.1c-0.1,1.1-0.1,2.2-0.1,3.3c0,0,0,0,0,0c0,0.1,0,0.2,0,0.4c0,0.1,0.1,0.3,0.1,0.4c0.8,1.8,1.6,3.6,2.1,5.4
		c0,0.1-0.3,0.1-0.3,0c-0.9-1-1.3-2-1.6-3c0,0.4-0.1,0.7-0.2,1.1c0.5,0.9,0.4,0.9,0.5,2c0.4,0,0.8,0,1.2,0.1c0.2,0,0.2,0.1,0,0.1
		c-0.4,0-0.8,0-1.2-0.1c-0.1,0.2-0.6,0.4-1.1,0.4c-0.2,0.1-0.4,0.2-0.8,0.3c0,0.1,0,0.1-0.1,0.2c-0.1,0.1-0.5,0.1-0.5,0
		c0-0.1,0-0.1,0-0.2c-0.1,0-0.2,0-0.3,0c-0.1,0-0.1,0-0.2,0c0,0,0,0,0,0c-0.5,0-1.1-0.1-1.6-0.1c-0.2,0-0.5,0-0.7,0
		c-1.7,0-3.5,0-5.2-0.1c-0.1,0-0.3,0-0.4,0c-4.2,0.1-9.2-0.4-13.4-0.7c0,0,0,0,0,0c0,0,0,0-0.1,0c-0.4,0-0.8-0.1-1.1-0.1
		c-8.9-0.2-17.9-0.5-26.8-0.7c7.4,0.2,14.7,0.6,22,1c4,0.3,8,0.6,12,0.8c0.7,0,1.4,0.1,2,0.2c6,0.3,12,0.4,17-0.2c0.1,0,0.1,0,0,0.1
		c-4.1,0.6-8.2,0.7-12.4,0.5c2.5,0.1,5,0.2,7.5,0.3c0.6-0.1,1.1-0.2,1.6-0.3c0,0,0,0,0,0c2,0.3,1.2,0.1,2.7,0.7
		c0.1,0,0.1,0.1-0.1,0.1c-3.5,0.2-6.7,0.1-9.9-0.2c-6.4-0.2-12.8-0.8-18.9-1.4c-2.5-0.1-4.9-0.3-7.4-0.4c-11-0.5-22-0.9-33-1.3
		c-0.4,0-0.4-0.2-0.2-0.2c-2.5-0.1-5-0.1-7.6-0.2c-15.7-0.3-31.5-0.6-47.1-1.1c0,0-0.1,0-0.1,0c-0.4,0.1-0.8,0.2-1.2,0.3
		c0.8,0.1,1.6,0.3,2.3,0.5c0.1,0,0,0.1-0.1,0c-0.7-0.3-1.6-0.4-2.5-0.5c-1.3,0.4-2.7,0.7-4,1.1c-1.2,1.2-4.6,2-8,2.5c0,0,0,0,0,0
		c-2.6,1-5.2,2-7.8,2.9c0.2,0,0.5-0.1,0.7-0.1c0.1,0,0.1,0,0,0c-0.3,0.1-0.6,0.1-1,0.2c-0.9,0.3-1.8,0.7-2.7,1
		c-3.7,1.4-8,2.6-12.5,3.7c-1.4,0.6-2.8,1.2-4.3,1.8c-0.2,0.1-0.4,0-0.2-0.1c0.7-0.3,1.5-0.6,2.2-0.9c-2.1,0.8-4.3,1.6-6.6,2.4
		c0,0,0,0,0,0c-2,0.9-3.8,1.9-5.7,2.8c0,0,0,0,0,0c0,0,0,0-0.1,0c0,0-0.1,0-0.1,0c0,0-0.1,0-0.1,0.1c-0.4,0.3-1.5,0-1.2-0.3
		c0,0,0,0,0,0c-0.3,0-0.5-0.1-0.4-0.2c0.1-0.1,0.2-0.1,0.2-0.2c-0.1,0-0.1,0.1-0.2,0.1c-0.2,0-0.3-0.1-0.2-0.1
		c0.3-0.1,0.5-0.2,0.7-0.3c0.1-0.1,0.1-0.1,0.2-0.2c0.4-1.5,2-2.9,3.1-4.3c2-2.7,3.2-5.4,4.8-8.1h0c0.2-0.6,0.3-1.2,0.6-1.8
		c0.1-0.3,0.2-0.6,0.3-0.9c0,0,0,0,0,0c-1.4-0.1-2.7-0.7-1.8-1.4c0.2-0.2,0.3-0.4,0.4-0.6c0-0.2,0.1-0.3,0.1-0.5
		c-0.1,0-0.3,0-0.4-0.1c-0.3-0.1-0.4-0.2-0.3-0.3c-2.3,0-4.6,0-6.9,0c-4.4,0-8.9,0-13.3-0.1c-0.3,0-0.3-0.2,0-0.2c1.8,0,3.6,0,5.5,0
		c-0.7-0.1-1.4-0.1-2.1-0.1c-0.2,0-0.3,0-0.4-0.1c0,0-0.1,0-0.1,0c0,0,0,0-0.1,0c-0.9-0.1-1.7-0.2-2.4-0.4c-0.4,0-0.8,0-1.4-0.1
		c-0.5,0-0.8-0.1-1-0.3c0,0,0,0-0.1,0c-0.4,0-0.7-0.2-0.6-0.3c0.1-0.1,0.1-0.3,0.1-0.4c-1.8-1-2.3-2.4-2.2-3.8c-0.3,0-0.6,0-0.9,0
		c0.2,1.3,0.3,2.6,0.5,4c0,0.2-0.6,0.2-0.6,0c-0.3-1.3-0.4-2.7-0.6-4c0,0-0.1,0-0.1,0c0.1,0.4,0.2,0.8,0.2,1.3c0,0.2-0.8,0.3-0.9,0
		c-0.2-0.4-0.3-0.9-0.4-1.4c-1.2-0.1-2.4-0.1-3.7-0.2c-0.5,0-0.4-0.3,0.1-0.3c1.1,0,2.3,0,3.4,0.1c-0.3-1.3-0.5-2.6-0.2-3.9
		c0-0.1,0.2-0.1,0.3-0.1c-0.4,0-0.7,0-1.1,0c-0.5,0-0.5-0.4,0-0.4c0.5,0,1.1-0.1,1.8-0.1c-0.4-4.5-0.6-8.9-0.5-13.4
		c0-0.1,0.3-0.1,0.3,0c0,1.2,0.2,2.4,0.2,3.6c-0.1-2.1-0.1-4.1-0.1-6.2c-2-6-3-12-3-18.1c0,0,0.1,0,0.1,0c-0.1-1.3,0.1-2.7,0.1-4
		C5.9,8.1,5.7,8,5.7,7.8c0-0.1,0-0.3,0.1-0.4c-0.2,0-0.4-0.1-0.5-0.1c-1.3-0.2-1.5-0.8-1-1.2c-0.6,0-1.3,0-1.9-0.1
		C1.9,6.1,1.9,5.9,2.2,5.9z M205.3,56.9C205.3,56.9,205.3,56.9,205.3,56.9c0.1,1.1,1.2,2.6,1.4,3.4c-0.3-1.2-0.8-2.4-1.4-3.6
		C205.3,56.8,205.3,56.8,205.3,56.9z M91.4,6.8c1.7,0,3.4,0.1,5.1,0.1c5.3-0.1,10.6-0.1,15.9-0.1c-3-0.1-6.1-0.1-9.1-0.2
		C99.3,6.6,95.3,6.7,91.4,6.8z M107.7,6.4c3.4,0.1,6.7,0.1,10.1,0.2c-0.3,0-0.3-0.2,0-0.2c12.1,0,24.2-0.1,36.3-0.1
		c0.7,0,1.4-0.1,2.2-0.1C140.5,5.4,124,6,107.7,6.4z M118.3,6.6c1.4,0,2.9,0.1,4.3,0.1c1.6,0,3.2,0,4.8,0c0.1,0,0.1,0,0.2,0.1
		c4.7,0,9.4,0,14.1,0C133.9,6.7,126.1,6.7,118.3,6.6z M157.8,6.3c-0.3,0-0.5,0-0.8,0c0.6,0,1.1,0,1.7,0
		C158.4,6.3,158.1,6.3,157.8,6.3z M177.4,6.6c-0.1,0-0.1-0.1-0.2-0.1c-9.5,0.1-19.1,0.2-28.6,0.2C140.3,7,132,7.1,123.7,7
		c-6.8,0-13.6,0.1-20.4,0.2c4.1,0.1,8.2,0.3,12.3,0.5c21.4-0.4,42.8-0.4,64.2-0.8C179,6.8,178.2,6.7,177.4,6.6z M185.7,6.3
		c-0.9,0.2-2,0.4-3.1,0.5c1.9,0,3.9-0.1,5.8-0.1c0.1-0.1,0.2-0.3,0.3-0.4C187.7,6.3,186.7,6.3,185.7,6.3z M190.2,6.2
		c-0.2,0-0.4,0-0.6,0c-0.1,0.1-0.2,0.3-0.4,0.4c0.5,0,1,0,1.5,0C190.5,6.5,190.3,6.4,190.2,6.2z M192.8,6.2c0,0.1,0,0.3,0,0.4
		c0.2,0,0.4,0,0.6,0c0-0.1,0-0.3,0.1-0.4C193.2,6.2,193,6.2,192.8,6.2z M195.1,6.5c0.7,0,1.3,0,2-0.1c0-0.1,0.1-0.3,0.1-0.4
		c-0.7,0-1.3,0-2,0.1C195.1,6.3,195.1,6.4,195.1,6.5z M195.9,5.7c-0.2,0-0.3,0-0.4-0.1c-0.1,0.1-0.2,0.1-0.3,0.2c0,0,0,0,0,0
		c0.7,0,1.3,0,2,0c0,0,0-0.1,0-0.1C196.8,5.7,196.3,5.7,195.9,5.7z M198.4,5.7C198.4,5.8,198.4,5.8,198.4,5.7c0.1,0,0.2,0,0.3,0
		C198.6,5.8,198.5,5.7,198.4,5.7z M224.4,7.2C224.4,7.2,224.4,7.2,224.4,7.2C224.3,7.2,224.4,7.2,224.4,7.2
		C224.3,7.2,224.3,7.2,224.4,7.2C224.3,7.2,224.3,7.2,224.4,7.2z M223.1,8.8c-1.2,1.6-2.3,3.1-3.3,4.7c1.2-1.2,2.2-2.3,3.2-3.5
		c0.1-0.2,0.2-0.4,0.3-0.6C223,9.2,222.8,9,223.1,8.8z M223.7,8.3c-0.1,0-0.1-0.1-0.1-0.2c-0.2,0.2-0.3,0.4-0.5,0.6
		C223.4,8.6,223.5,8.5,223.7,8.3z M214.2,25.4c0-0.1,0.1-0.2,0.1-0.3c0,0,0.1,0,0.1,0c3.3-4.2,6.9-8.4,9-12.8
		c-0.3,0.3-0.6,0.6-0.9,0.9c-0.1,0.1-0.3,0.1-0.6,0.1c-0.2,0.3-0.4,0.6-0.6,0.9c0,0,0,0,0,0c0,0,0,0,0,0c-1.2,1.8-2.5,3.6-3.9,5.4
		c-1.2,1.9-2.4,3.8-3.4,5.7c0,0,0,0,0,0c-0.1,0.3-0.2,0.5-0.4,0.8C213.8,25.8,214,25.6,214.2,25.4z M219.7,13.4
		c-0.3,0.4-0.6,0.8-0.9,1.2c0,0,0,0,0-0.1C219.1,14.2,219.4,13.8,219.7,13.4z M210.7,30.1c0.2-0.3,0.4-0.7,0.7-1
		c0.1-0.2,0.2-0.5,0.3-0.7c0.2-0.8,0.5-1.6,0.8-2.4c-0.1,0.1-0.1,0.2-0.2,0.2C211.7,27.6,211.2,28.9,210.7,30.1
		C210.7,30.2,210.7,30.2,210.7,30.1z M150.2,60.3c0-0.1,0-0.1,0.2-0.1c-1.8,0-3.6-0.1-5.4-0.1c0,0,0,0,0,0c-1.5,0-3,0-4.5-0.1
		C143.6,60.1,146.9,60.2,150.2,60.3z M79.8,56.4c0.1,0,0.3,0,0.4,0C80,56.4,79.9,56.4,79.8,56.4C79.7,56.4,79.8,56.4,79.8,56.4z
		 M79.6,58.6c-0.2,0-0.4,0-0.6,0c0,0.1-0.1,0.2-0.3,0.2C79.1,58.7,79.4,58.6,79.6,58.6z M78.5,58.8c0.1,0,0.1,0,0.2-0.1
		c-0.1,0-0.3,0.1-0.4,0.1C78.4,58.9,78.5,58.8,78.5,58.8z M76.6,59.4c0.4-0.1,0.8-0.2,1.2-0.4c-0.2,0-0.5,0-0.7,0.1
		C76.9,59.2,76.7,59.3,76.6,59.4C76.5,59.3,76.5,59.4,76.6,59.4z M78.2,58.9c-0.1,0-0.2,0-0.2-0.1c-0.1,0-0.2,0.1-0.3,0.1
		C77.9,58.9,78.1,58.9,78.2,58.9z M77,59c0.2-0.1,0.4-0.1,0.7-0.2c0,0-0.1-0.1-0.1-0.1c0,0,0,0,0,0c0,0-0.1,0-0.1-0.1
		c-0.1,0-0.1,0-0.2,0c-0.4,0.1-0.8,0.3-1.2,0.4C76.4,59,76.7,59,77,59z M76,58.6c0.2-0.1,0.4-0.1,0.5-0.2c-0.2,0-0.3,0-0.5-0.1
		C76.1,58.5,76.1,58.5,76,58.6C76,58.6,76,58.6,76,58.6z M74.8,58.9C74.8,58.9,74.8,58.9,74.8,58.9c0.2,0,0.3-0.1,0.4-0.1
		c-0.3,0-0.6,0-0.8-0.1c-0.4,0.1-0.7,0.2-1.1,0.3C73.9,59,74.4,58.9,74.8,58.9z M74.2,56.2c-0.2,0-0.5,0-0.7,0c0,0,0.1,0,0.1,0
		c0.2,0,0.3,0,0.4,0C74.1,56.2,74.1,56.2,74.2,56.2z M36.8,72.9c0.9-0.4,1.8-0.8,2.8-1.2c-0.6,0.1-1.1,0.3-1.7,0.4
		c-0.5,0.2-0.9,0.4-1.4,0.6C36.6,72.8,36.7,72.8,36.8,72.9z M35.6,72.8C35.6,72.8,35.7,72.8,35.6,72.8
		C35.7,72.8,35.7,72.8,35.6,72.8c0.1-0.1,0.2-0.1,0.2-0.1c0,0,0,0,0.1,0c0.3-0.1,0.6-0.3,0.9-0.4c-0.2,0.1-0.5,0.1-0.7,0.2
		c-0.3,0.1-0.6,0.3-0.8,0.4C35.3,72.9,35.5,72.9,35.6,72.8z M31.5,73.8c-0.1,0.2-0.2,0.3-0.3,0.5c0.3-0.1,0.5-0.3,0.8-0.4
		c0.8-0.7,1.4-1.5,1.9-2.2c0.1-0.1,0.1-0.2,0.2-0.3C33.3,72.2,32.4,73,31.5,73.8z M36.5,65.9c0.1-0.2,0.1-0.5,0.2-0.8
		c-1,2.5-2.2,5-4.2,7.3c1.3-1.4,2.5-2.8,3.6-4.2c0.2-0.3,0.4-0.6,0.6-0.9c0,0,0,0,0-0.1c0.1-0.2,0.3-0.5,0.4-0.7
		c-0.4,0-0.8-0.1-0.7-0.3C36.5,66.1,36.5,66,36.5,65.9z M15.9,51.1c1.3,0.1,2.6,0.1,3.8,0.2c-0.1-0.2-0.1-0.5-0.2-0.7
		c-1.3,0-2.7,0-4-0.1C15.6,50.7,15.8,50.9,15.9,51.1z M14.5,47.9c0-0.2,0-0.3,0-0.5c0,0,0,0,0,0c0,0-0.1,0-0.1,0
		C14.4,47.6,14.4,47.8,14.5,47.9z M14.3,47.2c0.1,0,0.1,0,0.2,0c0,0,0,0,0-0.1c-0.1,0-0.2,0-0.2,0C14.3,47.1,14.3,47.2,14.3,47.2z
		 M14.1,46.5c0.1,0,0.2,0,0.4,0.1c0-0.6-0.1-1.2-0.1-1.8c0-0.1,0.3-0.1,0.3,0c0,0.6,0.1,1.2,0.2,1.9c0.1,0,0.1,0,0.2,0
		c0.1,0,0.1,0,0.1,0.1c-0.1-0.7-0.2-1.4-0.4-2.1c-0.4,0-0.8-0.1-1.2-0.1C13.8,45.2,13.9,45.8,14.1,46.5z M13.6,44.1
		c0.4,0,0.8,0.1,1.2,0.1c-1.7-9.9-2.9-19.9-4.5-29.9c0-0.1,0.3-0.1,0.3,0c1.8,10,3.3,20,4.8,30c0.8,0.1,1.5,0.3,1.9,0.6
		c0,0,0,0.1,0,0.1c-0.4,0.2-0.4,0.1-1,0.3c-0.2,0-0.3-0.1-0.2-0.1c0.8-0.3,0.2-0.5-0.6-0.6c0.2,1.5,0.5,3.1,0.7,4.6
		c0,0.1-0.5,0.1-0.5,0c-0.1-0.7-0.2-1.4-0.4-2.2c-0.1,0.1-0.2,0.2-0.3,0.2c0.1,0.9,0.2,1.8,0.3,2.7c1.4,0.1,2.8,0.1,4.1,0.2
		c-0.1-0.8-0.1-1.6-0.2-2.4c0,0,0.2,0,0.2,0c0.3,0.8,0.6,1.7,0.9,2.5c0.3,0,0.7,0.1,1,0.1c0.2,0,0.2,0.2,0,0.2c-0.3,0-0.6,0-0.9,0
		c0.1,0.3,0.1,0.6,0.2,0.8c0.7,0.1,1.5,0.1,2.2,0.2c0-0.2,0-0.4,0-0.5c0-0.2,0.6-0.2,0.7,0c0.2,0.5,0.4,0.9,0.6,1.4
		c0.1,0.3,0.3,0.5,0.5,0.8c0.4,0.4,1.2,0.2,1.9,0c0,0-0.1,0-0.1-0.1c0,0,0,0,0,0c0,0-0.1,0-0.1,0c0.5-0.3,0.5-0.4,1.5-0.5
		c0.3,0,0.6,0.1,0.4,0.2c-0.1,0-0.1,0.1-0.2,0.1c2.5-0.1,6.1-0.1,7.5,0.6c0.3,0.1-0.2,0.3-0.5,0.2c-1.7-0.8-5.3-0.2-7.7-0.4
		c-0.8,0.4-2,0.7-2.9,0.3c-1.1-0.5-1.4-1.2-1.5-1.8c-0.7,0-1.4-0.1-2.2-0.1c0.1,0.3,0.2,0.7,0.3,1c0,0.2-0.6,0.2-0.7,0
		c-0.2-0.4-0.4-0.7-0.5-1.1c-1.2,0-2.4-0.1-3.6-0.1c0.8,1.3,1.9,2.3,3.2,2.9c0.9,0.3,1.9,0.5,2.9,0.6c0.4,0,0.8,0,1.2,0
		c0.2,0,0.4,0,0.6,0.1c0,0,0.1,0,0.1,0c0.3-0.2,0.7-0.3,1.4-0.3c5.8,0,11.4,0.3,17.1,0.7h0c0.2,0,0.4,0,0.6,0
		c1.5,0.1,1.9,0.8,1.3,1.3c0.1,0,0.2,0.1,0.3,0.1c0.3,0,0.7,0,1,0c0.4,0,0.4,0.3,0,0.3c-0.3,0-0.5,0-0.8,0c0,0,0,0.1,0,0.1
		c-0.1,0.1-0.2,0.2-0.3,0.3c0,0.1-0.1,0.3-0.5,0.5c-0.2,0.2-0.4,0.4-0.6,0.6c0,0,0,0,0,0l0,0c0,0-0.1,0.1-0.1,0.1
		C43.5,59,43.2,59,42.9,59c-0.1,0.1-0.1,0.2-0.2,0.3c-0.1,0.4-0.2,0.7-0.3,1.1c0.1-0.1,0.4,0,0.3,0c-0.9,1.2-1.8,2.4-2.7,3.6
		c-1.2,2.4-2.8,4.7-4.5,7c0,0.1-0.1,0-0.2,0.1c-0.4,0.6-0.8,1.2-1.3,1.8c0.1,0,0.2-0.1,0.3-0.1c0,0-0.1-0.1,0-0.1
		c0.8-0.3,1.6-0.5,2.5-0.8c2.4-0.9,5-1.7,7.7-2.5l0,0c1.7-0.7,3.4-1.4,5.2-2c2.4-1,4.8-2.1,7.3-3.1c1.6-0.6,3.4-1.2,5.3-1.8
		c0.1-0.1,0.1-0.1,0.2-0.2c0.3-0.1,1.1-0.4,2.1-0.7c0.9-0.3,1.8-0.7,2.7-1c1.6-0.6,3.2-1.2,4.9-1.7c0.3-0.2,0.6-0.3,0.9-0.5
		c0.1-0.1,0.3,0,0.2,0c-0.1,0.1-0.3,0.2-0.4,0.2c0.3-0.1,0.7-0.2,1-0.3c0,0,0,0,0,0c-0.1-0.1-0.2-0.1-0.3-0.2c-0.3,0-0.7,0-1,0
		c-0.4,0-0.4-0.3,0-0.3c0.2,0,0.4,0,0.7,0c0,0,0,0,0,0c-0.4,0-0.7-0.1-1.1-0.1c-1.7,0.7-3.3,1.4-5.1,2c-0.2,0.1-0.5,0-0.3-0.1
		c1.6-0.6,3.3-1.3,4.9-1.9c-0.6-0.1-1.1-0.1-1.7-0.2c-1.7,0.7-3.6,1.4-5.4,2.1c-0.2,0.1-0.6,0-0.4-0.1c1.6-0.7,3.5-1.4,5.3-2
		c-0.4-0.1-0.8-0.1-1.1-0.2c-1.5,1.3-4.5,2.3-6.8,3.2c-0.2,0.1-0.7,0-0.5-0.1c1.2-0.7,2.7-1.2,4.1-1.9c1-0.5,1.8-0.9,2.6-1.5
		c-0.3-0.1-0.4-0.3-0.3-0.4c-0.2,0-0.4-0.1-0.6-0.1c0,0,0,0,0,0c-0.2,0.3-0.4,0.6-0.6,0.9c0,0,0,0,0,0c0.2,0.1-0.3,0.2-0.5,0.1
		c0,0,0,0,0,0c-0.5,0.4-1.1,0.9-2.1,1.1c-0.3,0.1-0.6-0.1-0.5-0.2c0.5-0.5,1.1-0.9,1.8-1.3c-0.8-0.4-1.6-0.6-2.3,0.1
		c-0.1,0.1-0.2,0.1-0.4,0.1c-0.1,0-0.1,0.1-0.1,0.1c-0.2,0.1-0.7,0.1-0.8,0c-0.2-0.3,0.2-0.5,0.5-0.8c-0.6,0-1.2,0-1.7,0
		c-0.3,0-0.3-0.2,0-0.2c0.6,0,1.3,0,1.9,0c0,0,0.1-0.1,0.1-0.1c0,0,0.1-0.1,0.2-0.1c-0.1,0-0.2,0-0.2,0c-0.3,0-0.2-0.2,0.1-0.2
		c2.2,0,4.3,0.1,6.5,0.1c0-0.1,0.1-0.1,0.1-0.2c0.1-0.1,0.5,0,0.5,0c0,0,0,0.1-0.1,0.1c0.3,0,0.6,0,0.9,0c0,0-0.1,0-0.1,0
		c-0.8-0.4,0.5-1,1.4-0.6c0.4,0.2,0.9,0.4,1.4,0.5c0.7,0,1.3,0.1,2,0.1c0.3-0.2,1-0.3,1.6-0.2c0.5,0.1,1.1,0.2,1.6,0.3
		c2.2,0.1,4.4,0.2,6.6,0.3c0.6-0.2,1.2-0.4,1.8-0.7c0,0,0.1,0,0.1,0c-0.5,0.2-1.1,0.4-1.7,0.7c2.4,0.1,4.8,0.2,7.1,0.3
		c7.3,0.1,14.5,0.3,21.8,0.5c3.8,0,7.6,0.1,11.3,0.3c20.5,0.6,41,1.4,61.2,2.8c3.1,0.1,6.3,0.3,9.4,0.4c1.7,0.1,3.3,0,4.9,0
		c-0.7-0.4,0.5-0.9,1.6-0.8c0,0,0-0.1,0-0.1c-0.1-0.1-0.2-0.2-0.3-0.2c0,0,0,0,0-0.1c-0.4-0.1-0.7-0.2-0.7-0.4c0-0.5,0-1.1,0-1.6
		c0,0-0.1,0-0.1,0c0-0.1,0-0.2,0.1-0.2c0-3.6,0.4-7.2,1.6-10.8c0.2-0.7,0.4-1.5,0.6-2.2c0.2-0.6,0.3-1.1,0.5-1.7
		c0.2-1,0.4-1.9,0.7-2.9c-1.1,2.1-2.1,4.1-3,6.2c-0.1,0.2-0.6,0.1-0.6-0.1c1.6-4,3.5-7.9,5.6-11.8c0.8-1.7,1.7-3.3,2.9-4.9
		c2.4-7.2,6.4-14.3,13.5-20.9c-0.1,0-0.2-0.1-0.1-0.1c0.5-0.4,0.9-0.7,1.3-1.1c0,0,0,0,0,0c-0.7-0.7-7.8-0.5-9.3-0.5
		c-2.8-0.1-5.5-0.2-8.3-0.3c-2.5,0-4.9,0-7.4,0c-0.3,0-0.7,0-1,0c0,0.1-0.1,0.3-0.1,0.4c2.9-0.1,5.7-0.2,8.6-0.3
		c0.2,0,0.2,0.1,0,0.1c-2.9,0.1-5.7,0.2-8.6,0.3c-0.1,0.4-0.3,0.7-0.6,1.1c0.5,0,1,0,1.5,0c0,0,0,0,0,0c0.5,0,0.8,0.1,0.9,0.3
		c-0.1,0-0.2,0-0.2,0c-0.2,0-0.5,0-0.9,0c0,0,0,0,0,0c0.4,0,0.7,0,1.1,0.1c0.1,0.2-0.2,0.4-0.9,0.4c-2.5,0-4.7,0-7.1-0.3
		c-0.6-0.1-0.6-0.4,0-0.5c1.6-0.2,3.2-0.1,4.8-0.1c0.1-0.3,0.2-0.7,0.2-1c-0.7,0-1.3,0.1-2,0.1c0,0.2-0.1,0.5-0.4,0.7
		c-0.2,0.2-0.8,0.2-1,0c-0.2-0.1-0.2-0.4-0.3-0.6c-0.2,0-0.4,0-0.6,0c0,0,0,0.1,0,0.1c0,0.3-1,0.4-1.4,0.2c-0.1-0.1-0.2-0.2-0.3-0.2
		c-0.7,0-1.4,0-2.2,0.1c-0.3,0.2-0.5,0.4-0.9,0.6c-0.2,0.1-0.6,0-0.4-0.1c0.3-0.2,0.5-0.3,0.6-0.5c-30.9,0.9-62,0.7-92.9,1.3
		c-0.3,0-0.3-0.2,0-0.2c6.5-0.2,13.1-0.4,19.6-0.5c-4.3-0.2-8.6-0.3-12.8-0.5C88.6,7.3,75.2,7.5,61.8,7.5c-0.3,0-0.3-0.2,0-0.2
		C72.6,7.2,83.5,7,94.3,6.9c-1.8,0-3.6-0.1-5.4-0.1c-1.1,0-2.2,0-3.3,0C73.9,6.9,62.3,7,50.7,7.1C39.3,7.3,28,7.5,16.6,7.5
		c-0.4,0-0.4-0.2,0-0.2c4.5,0,9-0.1,13.5-0.2c-3.1,0-6.1,0-9.2-0.1c-0.7,0-0.6-0.4,0-0.4c0.7,0,1.5,0,2.2-0.1
		c-2.1,0-4.2-0.1-6.3-0.1c0.4,0.1,0.4,0.3,0,0.4C15.3,7,13.9,7,12.4,7.1c0,0,0,0,0,0c-0.3,0.3-1.1,0.4-1.9,0.4c-0.3,0-0.5,0-0.8,0
		c0.8,3,0.5,6.2,0.2,9.3c0.1,0.9,0.2,1.8,0.3,2.7c0.2,0.8,0.3,1.5,0.3,2.3c0.6,4.9,1.4,9.9,2.3,14.8C13,37.6,13,40.7,13.6,44.1z
		 M26.8,53.1c0,0,0.1,0,0.1,0C27,53,27,53,27.1,53C27,53,26.9,53,26.8,53.1z M63.2,56.2c0.1,0,0.3,0,0.4,0c0,0,0,0,0.1,0
		c0.2-0.1,0.4-0.1,0.6,0c0.6,0,1.2,0,1.8,0c0,0,0,0,0,0c-1,0-1.9-0.1-2.9-0.1C63.2,56.1,63.3,56.1,63.2,56.2
		C63.2,56.2,63.2,56.2,63.2,56.2z M64.6,56.4c0.2,0.1,0.4,0.2,0.7,0.4c0.2-0.1,0.4-0.2,0.5-0.4C65.5,56.4,65,56.4,64.6,56.4z
		 M10.3,50.9c0.3,0,0.6,0,1,0c0-0.1,0-0.1,0-0.2c-0.4-1.3-0.7-2.6-1-3.9c-0.2,0-0.3,0-0.5,0C9.9,48.2,10.1,49.6,10.3,50.9z
		 M9.7,46.3c0.1,0,0.3,0,0.4,0C10,45.6,9.9,45,9.8,44.4c-0.1,0-0.2,0-0.3,0C9.6,45,9.6,45.6,9.7,46.3z M9.7,44.1
		c-0.2-1.5-0.4-2.9-0.6-4.4c0.1,1.5,0.1,2.9,0.3,4.4C9.5,44.1,9.6,44.1,9.7,44.1z M8.3,46.8c0.1,0,0.3,0,0.3,0.1
		c0.1,0.1,0.1,0.3,0.1,0.4c0,0,0,0-0.1,0c0.3,1.2,0.5,2.3,0.7,3.5c0,0,0.1,0,0.1,0c-0.2-1.3-0.3-2.7-0.5-4
		C8.8,46.9,8.5,46.8,8.3,46.8z M7.6,17c-0.1-0.2-0.1-0.3-0.2-0.5c0.1,0.9,0.3,1.7,0.4,2.6C7.8,18.4,7.7,17.7,7.6,17z M8.6,7.5
		C8.6,7.5,8.5,7.5,8.6,7.5c0,0.1,0,0.2,0.1,0.3c0-0.1,0.1-0.2,0.1-0.3C8.7,7.5,8.6,7.5,8.6,7.5z M8.9,28.4c0-0.2,0-0.5,0-0.8
		c-0.8-2.8-1.6-5.6-2-8.4C7.2,22.3,8,25.4,8.9,28.4z M35,65c0,0.1-0.2,0.1-0.2,0v-6.7c0-0.1,0.2-0.1,0.2,0V65z M151.2,27.7
		c0.3,0,0.3,0.2,0,0.2C150.8,28,150.8,27.7,151.2,27.7z M193.2,51.8c0.8-4.2,2.8-8.4,4.3-12.6c0-0.1,0.3,0,0.2,0
		c-1.2,4.2-3,8.4-4.1,12.6C193.6,51.9,193.2,52,193.2,51.8z M172,57c-0.1,0,0-0.1,0.1-0.1c3.8-0.1,7.7,0,11.5,0
		c0.1-0.1,0.1-0.3,0.2-0.4c-6.4,0.1-12.7-0.2-19-0.5c-0.4,0-0.4-0.2,0-0.2c5,0,9.9,0.2,14.8,0.4c0-0.1,0-0.1,0.2-0.1
		c1.4,0,2.8,0,4.2,0c0.2-0.6,0.3-1.2,0.5-1.8c0-0.1,0.3-0.1,0.3,0c-0.2,0.6-0.3,1.2-0.5,1.8c0.8,0,1.7,0,2.5,0
		c0.1-0.4,0.2-0.8,0.3-1.2c-0.1,0-0.3,0-0.4,0c-0.3,0-0.2-0.2,0.1-0.2c0.1,0,0.3,0,0.4,0c0.1-0.5,0.2-1,0.2-1.4c0-0.1,0.3-0.1,0.3,0
		c0,0.5,0,1,0,1.4c0.4,0,0.8,0,1.3,0.1c0.2-0.6,0.4-1.2,0.6-1.7c-0.4,0-0.7,0-1.1,0c-0.2,0-0.2-0.1,0-0.1c0.4,0,0.7,0,1.1,0
		c0.3-0.9,0.6-1.8,1-2.8c0-0.1,0.4-0.1,0.3,0c-0.4,0.9-0.7,1.8-1,2.7c0.1,0,0.1,0,0.2,0c1-3.2,2-6.4,3-9.6c0,0,0.2,0,0.2,0
		c-0.9,3.2-1.6,6.4-2.7,9.6c0.1,0,0.3,0,0.4,0c0.9-2.9,2.2-5.7,2.1-8.6c0-0.1,0.2-0.1,0.2,0c0.2,2.9-0.6,5.7-1.5,8.6
		c1,0,2.1,0,3.1,0c0.2,0,0.2,0.1,0,0.1c-1.1,0-2.1,0-3.2,0c-0.2,0.6-0.4,1.2-0.6,1.9c0.8,0,1.5,0.1,2.2,0.2c0.1-0.2,0.3-0.4,0.4-0.7
		c0.1-0.1,0.4-0.1,0.4,0c-0.1,0.2-0.2,0.5-0.3,0.7c0.5,0.1,1,0.2,1.5,0.3c0.3,0.1,0.1,0.2-0.2,0.2c-0.3,0-0.6,0-0.9-0.1
		c-0.1,0-0.1-0.1,0-0.1c-0.1,0-0.3,0-0.6,0c-0.1,0.3-0.3,0.6-0.4,0.9c0.1,0,0.2,0.1,0.2,0.1c0,0.3,0,0.7,0,1c0,0.1,0,0.1,0,0.2
		c0,0,0,0,0,0c1,0,2,0,3,0.1c0.3,0,0.3,0.2,0,0.2c-1,0.1-2,0.2-2.9,0.3c-0.2,0-0.3-0.1-0.1-0.1c0.4-0.1,0.7-0.1,1.1-0.2
		c-0.5,0-1,0-1.4,0c-0.1,0-0.1,0-0.1,0c-1.1,0-2.1,0-3.2,0c-0.6,0-1.2,0-1.8,0c-0.1,0.2-0.1,0.3-0.2,0.5c0,0.1-0.4,0-0.3,0
		c0.1-0.2,0.1-0.3,0.2-0.5c-0.3,0-0.5,0-0.8,0c-0.1,0.2-0.1,0.4-0.2,0.5c-0.1,0.1-0.6,0.1-0.6,0c0-0.2,0-0.3,0-0.5
		c-2.3-0.1-4.6-0.1-6.9-0.2c-0.4,0-0.4-0.3,0-0.3c1.2,0,2.5,0.1,3.7,0.1c0.1-0.1,0.1-0.3,0.2-0.4c-1.8,0-3.6,0-5.5,0
		c0.2,0,0.2,0.2-0.1,0.2c-12.1-0.1-23.9-0.9-36-1.4c-0.4,0-0.4-0.2,0-0.2C151.9,55.9,162,56.9,172,57z M187.8,54.9
		c0,0.4,0,0.8-0.1,1.2c0.3,0,0.6,0,0.9,0c0.1-0.4,0.2-0.7,0.4-1.1C188.6,55,188.2,55,187.8,54.9z M189.1,56.1c0.5,0,0.9,0,1.4,0
		c0-0.3,0.1-0.6,0.2-1c-0.2,0-0.5,0-0.7-0.1c0,0.1,0,0.1-0.1,0.2c0,0.1-0.3,0-0.2,0c0-0.1,0-0.1,0.1-0.2c-0.1,0-0.1,0-0.2,0
		C189.3,55.4,189.2,55.8,189.1,56.1z M190.1,53c-0.2,0.6-0.4,1.2-0.6,1.8c0.1,0,0.1,0,0.2,0c0.2-0.6,0.4-1.2,0.6-1.8
		C190.2,53,190.2,53,190.1,53z M190.7,53c-0.2,0.6-0.5,1.2-0.7,1.8c0.2,0,0.4,0,0.7,0c0.1-0.6,0.3-1.2,0.5-1.8
		C191,53,190.9,53,190.7,53z M193.1,57.7C193.1,57.7,193.1,57.7,193.1,57.7c-0.2-0.4-0.2-0.8-0.1-1.2c0,0,0,0,0,0c0,0,0,0,0,0
		c0.1-0.4,0.3-0.7,0.5-1.1c-0.7,0-1.5-0.1-2.1-0.2c-0.1,0.3-0.2,0.6-0.3,0.9c0.1,0,0.2,0,0.3,0c0.4,0,0.4,0.2,0,0.2
		c-0.1,0-0.3,0-0.4,0c-0.1,0.3-0.2,0.6-0.3,1c0,0.1-0.5,0.1-0.5,0c0-0.3,0.1-0.6,0.1-0.9c-0.5,0-0.9,0-1.4,0
		c-0.1,0.2-0.2,0.3-0.2,0.5c0.2,0,0.3,0,0.5,0c0.2,0,0.2,0.1,0,0.1c-0.2,0-0.4,0-0.5,0c-0.1,0.2-0.1,0.4-0.2,0.5
		C190,57.7,191.5,57.7,193.1,57.7z M188.5,56.4c-0.3,0-0.6,0-0.9,0c0,0.2,0,0.3-0.1,0.5c0.3,0,0.5,0,0.8,0
		C188.4,56.8,188.4,56.6,188.5,56.4z M188.1,57.6c0.1-0.2,0.1-0.3,0.2-0.5c-0.2,0-0.5,0-0.7,0c0,0.2-0.1,0.3-0.2,0.5
		C187.6,57.6,187.9,57.6,188.1,57.6z M186.7,56.4c-0.9,0-1.7,0-2.6,0c0,0,0,0,0,0c0,0,0,0,0,0c-0.1,0.2-0.1,0.3-0.2,0.5
		c0.9,0,1.8,0,2.7,0C186.6,56.8,186.7,56.6,186.7,56.4z M186.5,57.6c0-0.2,0-0.3,0-0.5c-0.9,0-1.8,0-2.7,0c-0.1,0.1-0.1,0.3-0.2,0.4
		C184.6,57.5,185.6,57.5,186.5,57.6z M125.4,54.7c1.1,0.1,2.9,0.4,4,0.2c0.1,0,0.3,0.1,0.1,0.1c-1.9,0.4-5.7-0.1-7.7-0.3
		c-0.3,0-0.2-0.2,0.1-0.2C123.1,54.6,124.3,54.6,125.4,54.7z M59,60.9c0.1,0,0.3,0,0.3,0.1c-0.1,0.4-0.8,0.6-1.8,0.6
		c-0.3,0-0.5-0.1-0.3-0.2C57.9,61.2,58.3,61.1,59,60.9z M54.1,63.8c-0.8,0.7-1.8,1.4-3.5,1.8c-0.4,0.1-0.7-0.1-0.6-0.2
		c0.8-0.7,2.2-1.2,3.4-1.8C53.7,63.5,54.3,63.7,54.1,63.8z M46.3,66.9c-0.2,0.1-0.5,0.3-0.8,0.4c-0.2,0.1-0.6,0-0.5-0.1
		c0.4-0.3,0.3-0.3,1-0.4C46.3,66.7,46.4,66.8,46.3,66.9z M22.4,39.8c0.3,4,2.3,7.9,1.7,11.9c0,0.2-0.5,0.2-0.6,0
		c-0.8-3.9-1.5-7.9-1.4-11.9C22.2,39.8,22.4,39.8,22.4,39.8z M21.2,46.4c0.1,1.5,0.6,3,1.1,4.5c0,0.1-0.5,0.2-0.6,0
		c-0.7-1.5-0.9-3-0.8-4.6C20.9,46.4,21.2,46.4,21.2,46.4z M21.1,53.6c0-0.3,0.1-0.6,0.1-0.9c0-0.2,0.7-0.3,0.9-0.1
		c0.5,0.3,0.7,0.6,0.7,0.9c0,0,0,0.1,0,0.1c0,0,0,0-0.1,0C22.9,54,21.2,54.1,21.1,53.6z M19.2,28.6c0,0.1,0.1,0.2,0.1,0.2
		c0.1,0.2,0,0.3-0.4,0.4c-0.1,0-0.2,0.1-0.3,0.1c-0.1,0-0.2,0-0.3,0c-0.1,0-0.2-0.1-0.3-0.1c-0.3-0.1-0.4-0.2-0.4-0.4
		c0-0.1,0.1-0.2,0.1-0.2C18,28.4,19.1,28.4,19.2,28.6z M18.4,32c0-0.2,0.6-0.3,0.9-0.1c0.4,0.3,0.4,0.3,0.4,0.5
		c0.6,0.2,0.8,0.6,0,0.7c0,0,0,0-0.1,0c0.1,1,0.2,2,0.3,3.1c0,0.1-0.2,0.1-0.2,0c0-1-0.1-1.9-0.2-2.9c0,0-0.1,0.1-0.1,0.1
		c0,0.1-0.4,0.1-0.4,0c-0.1-0.1-0.2-0.2-0.3-0.3C18,33,18,32.6,18.4,32.4C18.3,32.3,18.3,32.1,18.4,32z M14.8,8.7
		c0.5,0.1,0.8,0.1,1.1,0.2c0.3,0,0.6,0,0.9,0c1.9-0.1,3.9-0.1,5.9,0c0.2,0,0.2,0.1,0,0.1c-1.5,0-2.9,0.1-4.3,0.1c0,0,0,0,0,0
		c-0.5,0-1,0-1.5,0c0,0-0.1,0.1-0.2,0.1c-0.5,0.1-0.8,0.2-1.1,0.2c0,0-0.1,0.1-0.1,0.1c1.4,0.1,1.3,1-0.2,1c-1.2,0-1.5-0.6-0.9-0.9
		c-0.3-0.1-0.4-0.2-0.7-0.4C13.1,9.1,13.7,8.6,14.8,8.7z M30.6,8.4c0.3,0,0.4,0.2,0.2,0.3c0.2,0.2-0.1,0.4-0.6,0.4
		c-0.8,0-0.9,0-1.6-0.1c-0.5-0.1-0.5-0.5,0-0.6C29.5,8.2,29.5,8.2,30.6,8.4z M170.4,56.6c-4.6-0.1-9.3-0.1-13.9-0.5
		c-0.2,0-0.1-0.1,0-0.1C161.2,56.1,165.8,56.4,170.4,56.6C170.5,56.5,170.5,56.6,170.4,56.6z M137.5,55.1c0.3,0,0.3,0.2,0,0.2
		c-1,0-2.1,0-3.1,0c-0.3,0-0.3-0.2,0-0.2C135.4,55.1,136.4,55.1,137.5,55.1z M203.3,8.1c-0.1,0-0.1,0-0.2,0c-0.6,0-0.7-0.4,0-0.4
		c1.6-0.1,3.2,0,4.8,0c0-0.1,0-0.2,0-0.3c0-0.1,0.4-0.1,0.4,0c0,0.1,0,0.2,0,0.3c0.9,0,1.9,0.1,2.8,0.1c0.1,0,0.1-0.1,0.2-0.1
		c0.2-0.1,0.5,0,0.4,0.1c0,0,0,0,0,0c0.3,0,0.5,0,0.8,0c0.1-0.1,0.2-0.2,0.3-0.4c0.2-0.3,1.1-0.2,1.1,0.1c0,0.1-0.1,0.2-0.1,0.3
		c0.1,0,0.2,0,0.3,0c0.5,0,0.9,0.2,0.7,0.4c-0.4,0.5-0.7,0.9-1,1.4c-0.2,0.2-0.8,0.2-1.1,0.1c-0.3,0.1-0.6,0-0.7-0.1
		c-0.2-0.4-0.1-0.8,0.2-1.2c-0.3,0-0.5,0-0.8,0c-0.3,0.6-0.4,1.2-1,1.8c-0.2,0.2-0.8,0.1-0.8-0.1c-0.1-0.5,0.2-1.2,0.8-1.7
		c-0.6,0-1.3,0-1.9-0.1c0.1,0.6,0,1.3-0.7,1.9c-0.2,0.1-0.6,0-0.5-0.1c0.3-0.6,0.5-1.2,0.6-1.8c-0.5,0-0.9,0-1.3,0
		c0,0.4-0.4,0.8-0.9,1c-0.1,0.1-0.5,0.1-0.6,0c-0.4-0.3-0.6-0.5-0.8-0.7c-1.3,0.3-3.5,0.5-3.9-0.1c0-0.1,0-0.1,0.2-0.1
		C201.5,8.2,202.4,8.2,203.3,8.1z M205.3,8.2c-0.1,0.2,0.1,0.1,0.4,0C205.5,8.2,205.4,8.2,205.3,8.2C205.2,8.2,205.3,8.2,205.3,8.2z
		 M198,8.1C198,8.1,198,8.1,198,8.1c0.5,0,1,0,1.6,0C199.1,8.1,198.5,8.1,198,8.1z M201.1,8.3c-0.5-0.1-1-0.1-1.5-0.1
		c0.6,0,1.1,0,1.5-0.1C201.6,8,201.5,8.3,201.1,8.3z M175.5,8.5c-2.1,0-4.1,0.1-6.1-0.1c-0.4,0-0.4-0.3,0-0.3
		c3.6-0.3,10.2-0.7,12.8,0.6c0.1,0.1,0,0.1-0.2,0.1C179.8,8.7,177.7,8.5,175.5,8.5z M122.7,60.6c3.6,0,7.6,0,11.1,0.3
		c0.3,0,0.3,0.2,0,0.2c-3.5,0.3-7.7,0.1-11.2-0.2C122,61,122.2,60.6,122.7,60.6z M102.7,59.8c0.1,0,0.1,0,0.1,0c0.1,0,0.2,0,0.2,0
		c0,0,0.1,0,0.1,0.1c0,0,0,0,0,0.1c0,0,0,0.1,0,0.1c0,0,0,0-0.1,0.1c-0.1,0-0.1,0-0.2,0c0,0-0.1,0-0.1,0c-6.1,0.1-12.4,0.2-18.5-0.1
		c-0.4,0-0.4-0.3,0-0.3C90.3,59.6,96.5,59.7,102.7,59.8z M81.6,60.2c0-0.2,0.9-0.2,0.9,0c0,1.5-6.1,2.5-8.9,2.9
		c-0.4,0.1-0.7-0.2-0.3-0.3C75.4,62.3,81.4,61.3,81.6,60.2z M57.3,66.8c2.4-0.8,4.8-1.5,7.4-2.1c1-0.3,2.2-0.5,3.2-0.7
		c-0.2,0,4.2-0.4,2.1-0.2c-0.2,0-0.3-0.1-0.1-0.1c0.4-0.1,0.8-0.1,1.2-0.2c0.3,0,0.4,0.1,0.2,0.2c-10.3,2.1-18.3,5.4-27.9,7.9
		c-0.4,0.1-0.7-0.1-0.3-0.2C48,69.9,52.6,68.3,57.3,66.8z M33.8,59.8c-0.1,0.2-0.9,0.2-1,0c-0.1-0.3-0.4-0.5-0.3-0.8
		c0-0.2,0.5-0.3,0.9-0.1C34.2,59.1,33.9,59.4,33.8,59.8z M6.1,44.1c0,0.2-0.7,0.2-0.8,0c-0.6-5.2-1-10.4-1.4-15.5
		c0-0.1,0.3-0.1,0.3,0C5.3,33.7,6.6,38.9,6.1,44.1z M227,7.5c-2.3,2.7-4,5.4-5.4,8.2c-0.1,0.1-0.5,0.1-0.5-0.1
		C222.2,12.8,224.3,10.1,227,7.5C226.9,7.5,227,7.5,227,7.5z M226.5,5.6c0,0,1.1-0.7,1.9-0.9c-0.4-0.2-1-0.3-1.6-0.5
		C226.5,4.2,226.7,4,227,4c0.8,0.1,1.5,0.3,2.2,0.5c0.3-0.1,0.6-0.1,0.9-0.2c0.4-0.1,1.1,0.3,1.1,0.3s-0.3,1-0.4,1.6
		c0,0.2-0.5,0.2-0.6,0c-0.1-0.3-0.2-0.7-0.3-1c-0.9,0.3-1.7,0.5-2.7,0.7C226.8,5.9,226.5,5.6,226.5,5.6z M203.7,4.3
		c-0.6,0-0.6-0.4,0-0.4c5.9-0.2,11.8,0.3,17.6-0.1c-0.1,0-0.2,0-0.3,0c-0.4,0-0.4-0.3,0-0.3c1,0,1.9,0,3,0.1c0.5,0,0.4,0.3,0,0.4
		C217.7,5.1,210.2,4.7,203.7,4.3z M165.1,4.7c-0.5,0-0.5-0.3,0-0.3c6.7-0.2,13.4-0.6,20.1-0.4c0.2,0,0.2,0.1,0,0.1
		C178.5,4.1,171.8,4.6,165.1,4.7z"/>
</g>
</svg>
