<?xml version="1.0" encoding="utf-8"?>
<!-- Generator: Adobe Illustrator 19.2.1, SVG Export Plug-In . SVG Version: 6.00 Build 0)  -->
<svg version="1.1" xmlns="http://www.w3.org/2000/svg" xmlns:xlink="http://www.w3.org/1999/xlink" x="0px" y="0px"
	 viewBox="0 0 1200 800" style="enable-background:new 0 0 1200 800;" xml:space="preserve">
<style type="text/css">
	.st0{fill:none;stroke:#000000;stroke-width:2;stroke-miterlimit:10;}
	.st1{font-family:'FranklinGothic-Book';}
	.st2{font-size:26px;}
	.st3{fill:none;stroke:#FCFCFC;stroke-width:4;stroke-linecap:round;stroke-miterlimit:10;}
	.st4{display:none;fill:#2D2D2D;}
	.st5{fill:#F9F9F9;}
	.st6{fill:#A31D02;}
</style>
<g id="Layer_4">
	<path class="st0" d="M1031.6,290.7c-14.5-48.2-90.7-75.5-90.7-75.5"/>
	<text transform="matrix(1 0 0 1 932.074 317.4276)" class="st1 st2">The year of 2015</text>
	<text transform="matrix(1 0 0 1 72.617 525.5851)" class="st1 st2">The year of 2004</text>
	<g>
		<g>
			<g>
				<line class="st3" x1="418.3" y1="526" x2="298.6" y2="636.7"/>
				<line class="st3" x1="538.1" y1="395.6" x2="418.3" y2="526"/>
				<line class="st3" x1="657.9" y1="350" x2="538.1" y2="395.6"/>
				<line class="st3" x1="777.7" y1="284.8" x2="657.9" y2="350"/>
				<line class="st3" x1="897.4" y1="200.1" x2="777.7" y2="284.8"/>
			</g>
		</g>
	</g>
	<path class="st0" d="M277.6,623.6c0,0-87-9-90-75"/>
</g>
<g id="Layer_3">
	<rect class="st4" width="1200" height="800"/>
	<text transform="matrix(1 0 0 1 229.609 646.6826)" class="st5 st1 st2">1.3</text>
	<text transform="matrix(1 0 0 1 921.609 205.9519)" class="st5 st1 st2">8.0</text>
</g>
<g id="Layer_1">
	<circle class="st6" cx="295.2" cy="638.7" r="7.9"/>
	<circle class="st6" cx="418.3" cy="525.6" r="7.9"/>
	<circle class="st6" cx="538.1" cy="395.6" r="7.9"/>
	<circle class="st6" cx="657.9" cy="350" r="7.9"/>
	<circle class="st6" cx="779.8" cy="282.7" r="7.9"/>
	<circle class="st6" cx="897.4" cy="198" r="7.9"/>
</g>
</svg>
