<?xml version="1.0" encoding="utf-8"?>
<!-- Generator: Adobe Illustrator 19.2.1, SVG Export Plug-In . SVG Version: 6.00 Build 0)  -->
<svg version="1.1" id="Layer_1" xmlns="http://www.w3.org/2000/svg" xmlns:xlink="http://www.w3.org/1999/xlink" x="0px" y="0px"
	 viewBox="0 0 1200 800" style="enable-background:new 0 0 1200 800;" xml:space="preserve">
<style type="text/css">
	.st0{fill:#F9F9F9;}
	.st1{fill:#A31D02;}
	.st2{fill:none;stroke:#F9F9F9;stroke-miterlimit:10;}
	.st3{fill:none;stroke:#333333;stroke-miterlimit:10;}
	.st4{font-family:'FranklinGothic-Book';}
	.st5{font-size:26px;}
</style>
<circle class="st0" cx="447.5" cy="407.6" r="13.4"/>
<circle class="st0" cx="523.1" cy="397.3" r="13.4"/>
<circle class="st1" cx="505.2" cy="343.9" r="13.4"/>
<circle class="st0" cx="513.2" cy="446.3" r="13.4"/>
<circle class="st0" cx="532.3" cy="424.6" r="13.4"/>
<circle class="st0" cx="475.8" cy="413.3" r="13.4"/>
<circle class="st0" cx="504" cy="418.9" r="13.4"/>
<circle class="st0" cx="494.8" cy="391.6" r="13.4"/>
<circle class="st0" cx="466.6" cy="386" r="13.4"/>
<circle class="st0" cx="485.6" cy="364.3" r="13.4"/>
<circle class="st2" cx="485" cy="440.6" r="13.4"/>
<circle class="st0" cx="515.4" cy="369.3" r="13.4"/>
<circle class="st0" cx="456.7" cy="434.9" r="13.4"/>
<path class="st3" d="M509.7,325.4c0,0,1.4-69.2,101.7-74.8"/>
<text transform="matrix(1 0 0 1 625.7665 256.7655)" class="st4 st5">Meanwhile, every 1 out of 12.5 gay men</text>
<text transform="matrix(1 0 0 1 625.7665 287.9655)" class="st4 st5">in China is living with HIV.</text>
</svg>
