<?xml version="1.0" encoding="utf-8"?>
<!-- Generator: Adobe Illustrator 19.2.1, SVG Export Plug-In . SVG Version: 6.00 Build 0)  -->
<svg version="1.1" id="Layer_1" xmlns="http://www.w3.org/2000/svg" xmlns:xlink="http://www.w3.org/1999/xlink" x="0px" y="0px"
	 viewBox="0 0 1200 800" style="enable-background:new 0 0 1200 800;" xml:space="preserve">
<style type="text/css">
	.st0{display:none;}
	.st1{display:inline;fill:#F98282;stroke:#FFFFFF;stroke-miterlimit:10;}
	.st2{fill:none;stroke:#FBFBFB;stroke-miterlimit:10;}
	.st3{display:inline;}
	.st4{fill:none;stroke:#FCFCFC;stroke-miterlimit:10;}
	.st5{fill:none;stroke:#F9F9F9;stroke-miterlimit:10;}
	.st6{fill:none;stroke:#F8F8F8;stroke-width:7;stroke-linecap:round;stroke-miterlimit:10;}
	.st7{stroke:#000000;stroke-width:0.5;stroke-miterlimit:10;}
	.st8{fill:none;}
	.st9{fill:#A31D02;}
	.st10{display:none;fill:#2D2D2D;}
	.st11{fill:#F9F9F9;}
	.st12{font-family:'FranklinGothic-Book';}
	.st13{font-size:25.2103px;}
</style>
<g id="Layer_3_1_" class="st0">
	<rect class="st1" width="1200" height="800"/>
</g>
<g id="Layer_2">
</g>
<g id="Layer_1_1_">
</g>
<g id="Layer_6">
	<g>
		<line class="st2" x1="241.8" y1="728.1" x2="930.3" y2="728.1"/>
		<g class="st0">
			<g class="st3">
				<line class="st2" x1="241.8" y1="728.1" x2="241.8" y2="721.4"/>
				<line class="st2" x1="299.2" y1="728.1" x2="299.2" y2="721.4"/>
				<line class="st2" x1="356.5" y1="728.1" x2="356.5" y2="721.4"/>
				<line class="st2" x1="413.9" y1="728.1" x2="413.9" y2="721.4"/>
				<line class="st2" x1="471.3" y1="728.1" x2="471.3" y2="721.4"/>
				<line class="st2" x1="528.6" y1="728.1" x2="528.6" y2="721.4"/>
				<line class="st2" x1="586" y1="728.1" x2="586" y2="721.4"/>
				<line class="st2" x1="643.3" y1="728.1" x2="643.3" y2="721.4"/>
				<line class="st2" x1="700.7" y1="728.1" x2="700.7" y2="721.4"/>
				<line class="st2" x1="758.1" y1="728.1" x2="758.1" y2="721.4"/>
				<line class="st2" x1="815.5" y1="728.1" x2="815.5" y2="721.4"/>
				<line class="st2" x1="872.9" y1="728.1" x2="872.9" y2="721.4"/>
				<line class="st2" x1="930.3" y1="728.1" x2="930.3" y2="721.4"/>
			</g>
		</g>
	</g>
	<g>
		<line class="st4" x1="241.9" y1="728.1" x2="240.6" y2="94.6"/>
		<g>
			<g>
				<line class="st5" x1="242.4" y1="653.3" x2="249" y2="653.3"/>
				<line class="st5" x1="242.2" y1="577.6" x2="248.9" y2="577.6"/>
				<line class="st5" x1="242.1" y1="501.9" x2="248.7" y2="501.9"/>
				<line class="st5" x1="241.9" y1="426.2" x2="248.6" y2="426.2"/>
				<line class="st5" x1="241.8" y1="350.5" x2="248.4" y2="350.5"/>
				<line class="st5" x1="241.6" y1="274.8" x2="248.3" y2="274.8"/>
				<line class="st5" x1="241.5" y1="199.1" x2="248" y2="199.1"/>
				<line class="st5" x1="241.2" y1="123.4" x2="247.9" y2="123.4"/>
			</g>
		</g>
	</g>
	<g>
		<g>
			<g>
				<line class="st6" x1="300.2" y1="623" x2="242.8" y2="630.6"/>
				<line class="st6" x1="357.5" y1="501.9" x2="300.2" y2="623"/>
				<line class="st6" x1="414.9" y1="411" x2="357.5" y2="501.9"/>
				<line class="st6" x1="472.2" y1="350.5" x2="414.9" y2="411"/>
				<line class="st6" x1="529.6" y1="244.5" x2="472.2" y2="350.5"/>
				<line class="st6" x1="587" y1="297.5" x2="529.6" y2="244.5"/>
				<line class="st6" x1="644.3" y1="252" x2="587" y2="297.5"/>
				<line class="st6" x1="701.7" y1="221.8" x2="644.3" y2="252"/>
				<line class="st6" x1="759.1" y1="176.3" x2="701.7" y2="221.8"/>
				<line class="st6" x1="816.5" y1="138.5" x2="759.1" y2="176.3"/>
				<line class="st6" x1="873.8" y1="123.4" x2="816.5" y2="138.5"/>
			</g>
		</g>
	</g>
	<g class="st0">
		<g class="st3">
			<g>
				<rect x="234.7" y="682.1" class="st7" width="6.6" height="6.6"/>
				<rect x="299.6" y="673.6" class="st7" width="6.6" height="6.6"/>
				<rect x="364.6" y="536.5" class="st7" width="6.6" height="6.6"/>
				<rect x="429.4" y="433.7" class="st7" width="6.6" height="6.6"/>
				<rect x="494.4" y="365.2" class="st7" width="6.6" height="6.6"/>
				<rect x="559.3" y="245.2" class="st7" width="6.6" height="6.6"/>
				<rect x="624.1" y="305.3" class="st7" width="6.6" height="6.6"/>
				<rect x="689.1" y="253.8" class="st7" width="6.6" height="6.6"/>
				<rect x="754" y="219.6" class="st7" width="6.6" height="6.6"/>
				<rect x="818.9" y="168.2" class="st7" width="6.6" height="6.6"/>
				<rect x="883.8" y="125.3" class="st7" width="6.6" height="6.6"/>
				<rect x="948.7" y="108.2" class="st7" width="6.6" height="6.6"/>
			</g>
		</g>
	</g>
	<line class="st2" x1="300.2" y1="722.2" x2="300.2" y2="728.1"/>
	<line class="st2" x1="357.5" y1="722.2" x2="357.5" y2="728.1"/>
	<line class="st2" x1="413.6" y1="721.9" x2="413.6" y2="727.8"/>
	<line class="st2" x1="472.2" y1="721.9" x2="472.2" y2="727.8"/>
	<line class="st2" x1="529.6" y1="722.6" x2="529.6" y2="728.5"/>
	<line class="st2" x1="587" y1="722.3" x2="587" y2="728.2"/>
	<line class="st2" x1="644.3" y1="722.6" x2="644.3" y2="728.5"/>
	<line class="st2" x1="701.7" y1="722.6" x2="701.7" y2="728.5"/>
	<line class="st2" x1="759.1" y1="722.6" x2="759.1" y2="728.5"/>
	<line class="st2" x1="816.5" y1="722.6" x2="816.5" y2="728.5"/>
	<line class="st2" x1="874.2" y1="722.6" x2="874.2" y2="728.5"/>
</g>
<g id="Layer_5">
	<g id="Layer_1_2_">
		<circle class="st8" cx="242.3" cy="630.2" r="6"/>
		<circle class="st9" cx="299.6" cy="623" r="6"/>
		<circle class="st9" cx="242.3" cy="630.2" r="6"/>
		<circle class="st9" cx="357.5" cy="501.9" r="6"/>
		<circle class="st9" cx="413.6" cy="411" r="6"/>
		<circle class="st9" cx="472.2" cy="350.5" r="6"/>
		<circle class="st9" cx="529.6" cy="244.5" r="6"/>
		<circle class="st9" cx="587" cy="297.5" r="6"/>
		<circle class="st9" cx="644.3" cy="252" r="6"/>
		<circle class="st9" cx="701.7" cy="222.8" r="6"/>
		<circle class="st9" cx="759.1" cy="176.3" r="6"/>
		<circle class="st9" cx="816.5" cy="138.5" r="6"/>
		<circle class="st9" cx="874.2" cy="123.4" r="6"/>
	</g>
</g>
<g id="Layer_4">
	<g id="Layer_3">
		<rect x="137.3" y="-66.7" class="st10" width="1163.5" height="775.7"/>
		<text transform="matrix(1 0 0 1 175.2787 637.9265)" class="st11 st12 st13">1.3%</text>
		<text transform="matrix(1 0 0 1 213.5512 751.8533)" class="st11 st12 st13">2004</text>
		<text transform="matrix(1 0 0 1 845.1273 751.8523)" class="st11 st12 st13">2015</text>
		<text transform="matrix(1 0 0 1 903.9672 132.4578)" class="st11 st12 st13">8.0%</text>
	</g>
	<line class="st8" x1="872" y1="211.3" x2="248.8" y2="211.3"/>
</g>
</svg>
