<?xml version="1.0" encoding="utf-8"?>
<!-- Generator: Adobe Illustrator 19.2.1, SVG Export Plug-In . SVG Version: 6.00 Build 0)  -->
<svg version="1.1" id="Layer_1" xmlns="http://www.w3.org/2000/svg" xmlns:xlink="http://www.w3.org/1999/xlink" x="0px" y="0px"
	 viewBox="0 0 1200 800" style="enable-background:new 0 0 1200 800;" xml:space="preserve">
<style type="text/css">
	.st0{display:none;fill:#6C6D6D;}
	.st1{fill:#F9F9F9;}
	.st2{fill:#A31D02;}
	.st3{fill:none;stroke:#333333;stroke-miterlimit:10;}
	.st4{font-family:'FranklinGothic-Book';}
	.st5{font-size:26px;}
</style>
<rect y="-2.7" class="st0" width="1200" height="800"/>
<circle class="st1" cx="369.6" cy="367.4" r="13.4"/>
<circle class="st1" cx="445.2" cy="357.1" r="13.4"/>
<circle class="st2" cx="439.5" cy="329.7" r="13.4"/>
<circle class="st1" cx="435.3" cy="406.1" r="13.4"/>
<circle class="st1" cx="454.4" cy="384.4" r="13.4"/>
<circle class="st1" cx="397.9" cy="373.1" r="13.4"/>
<circle class="st1" cx="426.1" cy="378.7" r="13.4"/>
<circle class="st1" cx="416.9" cy="351.4" r="13.4"/>
<circle class="st1" cx="388.7" cy="345.8" r="13.4"/>
<circle class="st1" cx="407.7" cy="324.1" r="13.4"/>
<circle class="st1" cx="407.1" cy="400.4" r="13.4"/>
<circle class="st1" cx="378.8" cy="394.7" r="13.4"/>
<path class="st3" d="M557.2,251c0,0-1.3,66.7-98,72.1"/>
<text transform="matrix(1 0 0 1 556.2321 235.0324)" class="st4 st5">Meanwhile, every 1 out of 12.5 gay men in China has HIV</text>
<path class="st1" d="M440.6,313.9c0.1-0.3,0.2-0.6,0.2-1c1.4-7.3-3.5-14.3-10.7-15.6c-7.3-1.4-14.3,3.5-15.6,10.7
	c-0.1,0.3-0.1,0.7-0.1,1L440.6,313.9z"/>
</svg>
